<?xml version="1.0" encoding="utf-8"?>
<svg xmlns="http://www.w3.org/2000/svg" xmlns:xlink="http://www.w3.org/1999/xlink" width="600" height="400" viewBox="0 0 2400 1600">
<defs>
  <clipPath id="clip900">
    <rect x="0" y="0" width="2400" height="1600"/>
  </clipPath>
</defs>
<path clip-path="url(#clip900)" d="M0 1600 L2400 1600 L2400 0 L0 0  Z" fill="#ffffff" fill-rule="evenodd" fill-opacity="1"/>
<defs>
  <clipPath id="clip901">
    <rect x="480" y="0" width="1681" height="1600"/>
  </clipPath>
</defs>
<path clip-path="url(#clip900)" d="M194.422 1486.45 L2352.76 1486.45 L2352.76 47.2441 L194.422 47.2441  Z" fill="#ffffff" fill-rule="evenodd" fill-opacity="1"/>
<defs>
  <clipPath id="clip902">
    <rect x="194" y="47" width="2159" height="1440"/>
  </clipPath>
</defs>
<polyline clip-path="url(#clip902)" style="stroke:#000000; stroke-linecap:round; stroke-linejoin:round; stroke-width:2; stroke-opacity:0.1; fill:none" points="255.507,1486.45 255.507,47.2441 "/>
<polyline clip-path="url(#clip902)" style="stroke:#000000; stroke-linecap:round; stroke-linejoin:round; stroke-width:2; stroke-opacity:0.1; fill:none" points="764.548,1486.45 764.548,47.2441 "/>
<polyline clip-path="url(#clip902)" style="stroke:#000000; stroke-linecap:round; stroke-linejoin:round; stroke-width:2; stroke-opacity:0.1; fill:none" points="1273.59,1486.45 1273.59,47.2441 "/>
<polyline clip-path="url(#clip902)" style="stroke:#000000; stroke-linecap:round; stroke-linejoin:round; stroke-width:2; stroke-opacity:0.1; fill:none" points="1782.63,1486.45 1782.63,47.2441 "/>
<polyline clip-path="url(#clip902)" style="stroke:#000000; stroke-linecap:round; stroke-linejoin:round; stroke-width:2; stroke-opacity:0.1; fill:none" points="2291.67,1486.45 2291.67,47.2441 "/>
<polyline clip-path="url(#clip900)" style="stroke:#000000; stroke-linecap:round; stroke-linejoin:round; stroke-width:4; stroke-opacity:1; fill:none" points="194.422,1486.45 2352.76,1486.45 "/>
<polyline clip-path="url(#clip900)" style="stroke:#000000; stroke-linecap:round; stroke-linejoin:round; stroke-width:4; stroke-opacity:1; fill:none" points="255.507,1486.45 255.507,1467.55 "/>
<polyline clip-path="url(#clip900)" style="stroke:#000000; stroke-linecap:round; stroke-linejoin:round; stroke-width:4; stroke-opacity:1; fill:none" points="764.548,1486.45 764.548,1467.55 "/>
<polyline clip-path="url(#clip900)" style="stroke:#000000; stroke-linecap:round; stroke-linejoin:round; stroke-width:4; stroke-opacity:1; fill:none" points="1273.59,1486.45 1273.59,1467.55 "/>
<polyline clip-path="url(#clip900)" style="stroke:#000000; stroke-linecap:round; stroke-linejoin:round; stroke-width:4; stroke-opacity:1; fill:none" points="1782.63,1486.45 1782.63,1467.55 "/>
<polyline clip-path="url(#clip900)" style="stroke:#000000; stroke-linecap:round; stroke-linejoin:round; stroke-width:4; stroke-opacity:1; fill:none" points="2291.67,1486.45 2291.67,1467.55 "/>
<path clip-path="url(#clip900)" d="M217.81 1517.37 Q214.199 1517.37 212.371 1520.93 Q210.565 1524.47 210.565 1531.6 Q210.565 1538.71 212.371 1542.27 Q214.199 1545.82 217.81 1545.82 Q221.445 1545.82 223.25 1542.27 Q225.079 1538.71 225.079 1531.6 Q225.079 1524.47 223.25 1520.93 Q221.445 1517.37 217.81 1517.37 M217.81 1513.66 Q223.621 1513.66 226.676 1518.27 Q229.755 1522.85 229.755 1531.6 Q229.755 1540.33 226.676 1544.94 Q223.621 1549.52 217.81 1549.52 Q212 1549.52 208.922 1544.94 Q205.866 1540.33 205.866 1531.6 Q205.866 1522.85 208.922 1518.27 Q212 1513.66 217.81 1513.66 Z" fill="#000000" fill-rule="evenodd" fill-opacity="1" /><path clip-path="url(#clip900)" d="M237.972 1542.97 L242.857 1542.97 L242.857 1548.85 L237.972 1548.85 L237.972 1542.97 Z" fill="#000000" fill-rule="evenodd" fill-opacity="1" /><path clip-path="url(#clip900)" d="M263.042 1517.37 Q259.431 1517.37 257.602 1520.93 Q255.796 1524.47 255.796 1531.6 Q255.796 1538.71 257.602 1542.27 Q259.431 1545.82 263.042 1545.82 Q266.676 1545.82 268.481 1542.27 Q270.31 1538.71 270.31 1531.6 Q270.31 1524.47 268.481 1520.93 Q266.676 1517.37 263.042 1517.37 M263.042 1513.66 Q268.852 1513.66 271.907 1518.27 Q274.986 1522.85 274.986 1531.6 Q274.986 1540.33 271.907 1544.94 Q268.852 1549.52 263.042 1549.52 Q257.232 1549.52 254.153 1544.94 Q251.097 1540.33 251.097 1531.6 Q251.097 1522.85 254.153 1518.27 Q257.232 1513.66 263.042 1513.66 Z" fill="#000000" fill-rule="evenodd" fill-opacity="1" /><path clip-path="url(#clip900)" d="M293.204 1517.37 Q289.592 1517.37 287.764 1520.93 Q285.958 1524.47 285.958 1531.6 Q285.958 1538.71 287.764 1542.27 Q289.592 1545.82 293.204 1545.82 Q296.838 1545.82 298.643 1542.27 Q300.472 1538.71 300.472 1531.6 Q300.472 1524.47 298.643 1520.93 Q296.838 1517.37 293.204 1517.37 M293.204 1513.66 Q299.014 1513.66 302.069 1518.27 Q305.148 1522.85 305.148 1531.6 Q305.148 1540.33 302.069 1544.94 Q299.014 1549.52 293.204 1549.52 Q287.393 1549.52 284.315 1544.94 Q281.259 1540.33 281.259 1531.6 Q281.259 1522.85 284.315 1518.27 Q287.393 1513.66 293.204 1513.66 Z" fill="#000000" fill-rule="evenodd" fill-opacity="1" /><path clip-path="url(#clip900)" d="M727.349 1517.37 Q723.738 1517.37 721.909 1520.93 Q720.104 1524.47 720.104 1531.6 Q720.104 1538.71 721.909 1542.27 Q723.738 1545.82 727.349 1545.82 Q730.983 1545.82 732.789 1542.27 Q734.618 1538.71 734.618 1531.6 Q734.618 1524.47 732.789 1520.93 Q730.983 1517.37 727.349 1517.37 M727.349 1513.66 Q733.159 1513.66 736.215 1518.27 Q739.294 1522.85 739.294 1531.6 Q739.294 1540.33 736.215 1544.94 Q733.159 1549.52 727.349 1549.52 Q721.539 1549.52 718.46 1544.94 Q715.405 1540.33 715.405 1531.6 Q715.405 1522.85 718.46 1518.27 Q721.539 1513.66 727.349 1513.66 Z" fill="#000000" fill-rule="evenodd" fill-opacity="1" /><path clip-path="url(#clip900)" d="M747.511 1542.97 L752.395 1542.97 L752.395 1548.85 L747.511 1548.85 L747.511 1542.97 Z" fill="#000000" fill-rule="evenodd" fill-opacity="1" /><path clip-path="url(#clip900)" d="M766.608 1544.91 L782.928 1544.91 L782.928 1548.85 L760.983 1548.85 L760.983 1544.91 Q763.645 1542.16 768.229 1537.53 Q772.835 1532.88 774.016 1531.53 Q776.261 1529.01 777.141 1527.27 Q778.043 1525.51 778.043 1523.82 Q778.043 1521.07 776.099 1519.33 Q774.178 1517.6 771.076 1517.6 Q768.877 1517.6 766.423 1518.36 Q763.992 1519.13 761.215 1520.68 L761.215 1515.95 Q764.039 1514.82 766.492 1514.24 Q768.946 1513.66 770.983 1513.66 Q776.354 1513.66 779.548 1516.35 Q782.742 1519.03 782.742 1523.52 Q782.742 1525.65 781.932 1527.57 Q781.145 1529.47 779.039 1532.07 Q778.46 1532.74 775.358 1535.95 Q772.256 1539.15 766.608 1544.91 Z" fill="#000000" fill-rule="evenodd" fill-opacity="1" /><path clip-path="url(#clip900)" d="M792.789 1514.29 L811.145 1514.29 L811.145 1518.22 L797.071 1518.22 L797.071 1526.7 Q798.09 1526.35 799.108 1526.19 Q800.127 1526 801.145 1526 Q806.932 1526 810.312 1529.17 Q813.691 1532.34 813.691 1537.76 Q813.691 1543.34 810.219 1546.44 Q806.747 1549.52 800.427 1549.52 Q798.252 1549.52 795.983 1549.15 Q793.738 1548.78 791.33 1548.04 L791.33 1543.34 Q793.414 1544.47 795.636 1545.03 Q797.858 1545.58 800.335 1545.58 Q804.339 1545.58 806.677 1543.48 Q809.015 1541.37 809.015 1537.76 Q809.015 1534.15 806.677 1532.04 Q804.339 1529.94 800.335 1529.94 Q798.46 1529.94 796.585 1530.35 Q794.733 1530.77 792.789 1531.65 L792.789 1514.29 Z" fill="#000000" fill-rule="evenodd" fill-opacity="1" /><path clip-path="url(#clip900)" d="M1235.89 1517.37 Q1232.28 1517.37 1230.45 1520.93 Q1228.65 1524.47 1228.65 1531.6 Q1228.65 1538.71 1230.45 1542.27 Q1232.28 1545.82 1235.89 1545.82 Q1239.53 1545.82 1241.33 1542.27 Q1243.16 1538.71 1243.16 1531.6 Q1243.16 1524.47 1241.33 1520.93 Q1239.53 1517.37 1235.89 1517.37 M1235.89 1513.66 Q1241.7 1513.66 1244.76 1518.27 Q1247.84 1522.85 1247.84 1531.6 Q1247.84 1540.33 1244.76 1544.94 Q1241.7 1549.52 1235.89 1549.52 Q1230.08 1549.52 1227 1544.94 Q1223.95 1540.33 1223.95 1531.6 Q1223.95 1522.85 1227 1518.27 Q1230.08 1513.66 1235.89 1513.66 Z" fill="#000000" fill-rule="evenodd" fill-opacity="1" /><path clip-path="url(#clip900)" d="M1256.05 1542.97 L1260.94 1542.97 L1260.94 1548.85 L1256.05 1548.85 L1256.05 1542.97 Z" fill="#000000" fill-rule="evenodd" fill-opacity="1" /><path clip-path="url(#clip900)" d="M1271.17 1514.29 L1289.53 1514.29 L1289.53 1518.22 L1275.45 1518.22 L1275.45 1526.7 Q1276.47 1526.35 1277.49 1526.19 Q1278.51 1526 1279.53 1526 Q1285.31 1526 1288.69 1529.17 Q1292.07 1532.34 1292.07 1537.76 Q1292.07 1543.34 1288.6 1546.44 Q1285.13 1549.52 1278.81 1549.52 Q1276.63 1549.52 1274.36 1549.15 Q1272.12 1548.78 1269.71 1548.04 L1269.71 1543.34 Q1271.8 1544.47 1274.02 1545.03 Q1276.24 1545.58 1278.72 1545.58 Q1282.72 1545.58 1285.06 1543.48 Q1287.4 1541.37 1287.4 1537.76 Q1287.4 1534.15 1285.06 1532.04 Q1282.72 1529.94 1278.72 1529.94 Q1276.84 1529.94 1274.97 1530.35 Q1273.11 1530.77 1271.17 1531.65 L1271.17 1514.29 Z" fill="#000000" fill-rule="evenodd" fill-opacity="1" /><path clip-path="url(#clip900)" d="M1311.29 1517.37 Q1307.67 1517.37 1305.85 1520.93 Q1304.04 1524.47 1304.04 1531.6 Q1304.04 1538.71 1305.85 1542.27 Q1307.67 1545.82 1311.29 1545.82 Q1314.92 1545.82 1316.73 1542.27 Q1318.55 1538.71 1318.55 1531.6 Q1318.55 1524.47 1316.73 1520.93 Q1314.92 1517.37 1311.29 1517.37 M1311.29 1513.66 Q1317.1 1513.66 1320.15 1518.27 Q1323.23 1522.85 1323.23 1531.6 Q1323.23 1540.33 1320.15 1544.94 Q1317.1 1549.52 1311.29 1549.52 Q1305.48 1549.52 1302.4 1544.94 Q1299.34 1540.33 1299.34 1531.6 Q1299.34 1522.85 1302.4 1518.27 Q1305.48 1513.66 1311.29 1513.66 Z" fill="#000000" fill-rule="evenodd" fill-opacity="1" /><path clip-path="url(#clip900)" d="M1745.43 1517.37 Q1741.82 1517.37 1739.99 1520.93 Q1738.19 1524.47 1738.19 1531.6 Q1738.19 1538.71 1739.99 1542.27 Q1741.82 1545.82 1745.43 1545.82 Q1749.07 1545.82 1750.87 1542.27 Q1752.7 1538.71 1752.7 1531.6 Q1752.7 1524.47 1750.87 1520.93 Q1749.07 1517.37 1745.43 1517.37 M1745.43 1513.66 Q1751.24 1513.66 1754.3 1518.27 Q1757.38 1522.85 1757.38 1531.6 Q1757.38 1540.33 1754.3 1544.94 Q1751.24 1549.52 1745.43 1549.52 Q1739.62 1549.52 1736.54 1544.94 Q1733.49 1540.33 1733.49 1531.6 Q1733.49 1522.85 1736.54 1518.27 Q1739.62 1513.66 1745.43 1513.66 Z" fill="#000000" fill-rule="evenodd" fill-opacity="1" /><path clip-path="url(#clip900)" d="M1765.59 1542.97 L1770.48 1542.97 L1770.48 1548.85 L1765.59 1548.85 L1765.59 1542.97 Z" fill="#000000" fill-rule="evenodd" fill-opacity="1" /><path clip-path="url(#clip900)" d="M1779.48 1514.29 L1801.7 1514.29 L1801.7 1516.28 L1789.16 1548.85 L1784.27 1548.85 L1796.08 1518.22 L1779.48 1518.22 L1779.48 1514.29 Z" fill="#000000" fill-rule="evenodd" fill-opacity="1" /><path clip-path="url(#clip900)" d="M1810.87 1514.29 L1829.23 1514.29 L1829.23 1518.22 L1815.15 1518.22 L1815.15 1526.7 Q1816.17 1526.35 1817.19 1526.19 Q1818.21 1526 1819.23 1526 Q1825.01 1526 1828.39 1529.17 Q1831.77 1532.34 1831.77 1537.76 Q1831.77 1543.34 1828.3 1546.44 Q1824.83 1549.52 1818.51 1549.52 Q1816.33 1549.52 1814.07 1549.15 Q1811.82 1548.78 1809.41 1548.04 L1809.41 1543.34 Q1811.5 1544.47 1813.72 1545.03 Q1815.94 1545.58 1818.42 1545.58 Q1822.42 1545.58 1824.76 1543.48 Q1827.1 1541.37 1827.1 1537.76 Q1827.1 1534.15 1824.76 1532.04 Q1822.42 1529.94 1818.42 1529.94 Q1816.54 1529.94 1814.67 1530.35 Q1812.82 1530.77 1810.87 1531.65 L1810.87 1514.29 Z" fill="#000000" fill-rule="evenodd" fill-opacity="1" /><path clip-path="url(#clip900)" d="M2243.74 1544.91 L2251.38 1544.91 L2251.38 1518.55 L2243.07 1520.21 L2243.07 1515.95 L2251.34 1514.29 L2256.01 1514.29 L2256.01 1544.91 L2263.65 1544.91 L2263.65 1548.85 L2243.74 1548.85 L2243.74 1544.91 Z" fill="#000000" fill-rule="evenodd" fill-opacity="1" /><path clip-path="url(#clip900)" d="M2273.09 1542.97 L2277.98 1542.97 L2277.98 1548.85 L2273.09 1548.85 L2273.09 1542.97 Z" fill="#000000" fill-rule="evenodd" fill-opacity="1" /><path clip-path="url(#clip900)" d="M2298.16 1517.37 Q2294.55 1517.37 2292.72 1520.93 Q2290.92 1524.47 2290.92 1531.6 Q2290.92 1538.71 2292.72 1542.27 Q2294.55 1545.82 2298.16 1545.82 Q2301.8 1545.82 2303.6 1542.27 Q2305.43 1538.71 2305.43 1531.6 Q2305.43 1524.47 2303.6 1520.93 Q2301.8 1517.37 2298.16 1517.37 M2298.16 1513.66 Q2303.97 1513.66 2307.03 1518.27 Q2310.11 1522.85 2310.11 1531.6 Q2310.11 1540.33 2307.03 1544.94 Q2303.97 1549.52 2298.16 1549.52 Q2292.35 1549.52 2289.28 1544.94 Q2286.22 1540.33 2286.22 1531.6 Q2286.22 1522.85 2289.28 1518.27 Q2292.35 1513.66 2298.16 1513.66 Z" fill="#000000" fill-rule="evenodd" fill-opacity="1" /><path clip-path="url(#clip900)" d="M2328.33 1517.37 Q2324.71 1517.37 2322.89 1520.93 Q2321.08 1524.47 2321.08 1531.6 Q2321.08 1538.71 2322.89 1542.27 Q2324.71 1545.82 2328.33 1545.82 Q2331.96 1545.82 2333.77 1542.27 Q2335.59 1538.71 2335.59 1531.6 Q2335.59 1524.47 2333.77 1520.93 Q2331.96 1517.37 2328.33 1517.37 M2328.33 1513.66 Q2334.14 1513.66 2337.19 1518.27 Q2340.27 1522.85 2340.27 1531.6 Q2340.27 1540.33 2337.19 1544.94 Q2334.14 1549.52 2328.33 1549.52 Q2322.52 1549.52 2319.44 1544.94 Q2316.38 1540.33 2316.38 1531.6 Q2316.38 1522.85 2319.44 1518.27 Q2322.52 1513.66 2328.33 1513.66 Z" fill="#000000" fill-rule="evenodd" fill-opacity="1" /><polyline clip-path="url(#clip902)" style="stroke:#000000; stroke-linecap:round; stroke-linejoin:round; stroke-width:2; stroke-opacity:0.1; fill:none" points="194.422,1333.1 2352.76,1333.1 "/>
<polyline clip-path="url(#clip902)" style="stroke:#000000; stroke-linecap:round; stroke-linejoin:round; stroke-width:2; stroke-opacity:0.1; fill:none" points="194.422,1168.31 2352.76,1168.31 "/>
<polyline clip-path="url(#clip902)" style="stroke:#000000; stroke-linecap:round; stroke-linejoin:round; stroke-width:2; stroke-opacity:0.1; fill:none" points="194.422,1003.52 2352.76,1003.52 "/>
<polyline clip-path="url(#clip902)" style="stroke:#000000; stroke-linecap:round; stroke-linejoin:round; stroke-width:2; stroke-opacity:0.1; fill:none" points="194.422,838.738 2352.76,838.738 "/>
<polyline clip-path="url(#clip902)" style="stroke:#000000; stroke-linecap:round; stroke-linejoin:round; stroke-width:2; stroke-opacity:0.1; fill:none" points="194.422,673.952 2352.76,673.952 "/>
<polyline clip-path="url(#clip902)" style="stroke:#000000; stroke-linecap:round; stroke-linejoin:round; stroke-width:2; stroke-opacity:0.1; fill:none" points="194.422,509.165 2352.76,509.165 "/>
<polyline clip-path="url(#clip902)" style="stroke:#000000; stroke-linecap:round; stroke-linejoin:round; stroke-width:2; stroke-opacity:0.1; fill:none" points="194.422,344.379 2352.76,344.379 "/>
<polyline clip-path="url(#clip902)" style="stroke:#000000; stroke-linecap:round; stroke-linejoin:round; stroke-width:2; stroke-opacity:0.1; fill:none" points="194.422,179.592 2352.76,179.592 "/>
<polyline clip-path="url(#clip900)" style="stroke:#000000; stroke-linecap:round; stroke-linejoin:round; stroke-width:4; stroke-opacity:1; fill:none" points="194.422,1486.45 194.422,47.2441 "/>
<polyline clip-path="url(#clip900)" style="stroke:#000000; stroke-linecap:round; stroke-linejoin:round; stroke-width:4; stroke-opacity:1; fill:none" points="194.422,1333.1 213.32,1333.1 "/>
<polyline clip-path="url(#clip900)" style="stroke:#000000; stroke-linecap:round; stroke-linejoin:round; stroke-width:4; stroke-opacity:1; fill:none" points="194.422,1168.31 213.32,1168.31 "/>
<polyline clip-path="url(#clip900)" style="stroke:#000000; stroke-linecap:round; stroke-linejoin:round; stroke-width:4; stroke-opacity:1; fill:none" points="194.422,1003.52 213.32,1003.52 "/>
<polyline clip-path="url(#clip900)" style="stroke:#000000; stroke-linecap:round; stroke-linejoin:round; stroke-width:4; stroke-opacity:1; fill:none" points="194.422,838.738 213.32,838.738 "/>
<polyline clip-path="url(#clip900)" style="stroke:#000000; stroke-linecap:round; stroke-linejoin:round; stroke-width:4; stroke-opacity:1; fill:none" points="194.422,673.952 213.32,673.952 "/>
<polyline clip-path="url(#clip900)" style="stroke:#000000; stroke-linecap:round; stroke-linejoin:round; stroke-width:4; stroke-opacity:1; fill:none" points="194.422,509.165 213.32,509.165 "/>
<polyline clip-path="url(#clip900)" style="stroke:#000000; stroke-linecap:round; stroke-linejoin:round; stroke-width:4; stroke-opacity:1; fill:none" points="194.422,344.379 213.32,344.379 "/>
<polyline clip-path="url(#clip900)" style="stroke:#000000; stroke-linecap:round; stroke-linejoin:round; stroke-width:4; stroke-opacity:1; fill:none" points="194.422,179.592 213.32,179.592 "/>
<path clip-path="url(#clip900)" d="M51.3162 1333.55 L80.992 1333.55 L80.992 1337.48 L51.3162 1337.48 L51.3162 1333.55 Z" fill="#000000" fill-rule="evenodd" fill-opacity="1" /><path clip-path="url(#clip900)" d="M101.084 1318.9 Q97.4734 1318.9 95.6447 1322.46 Q93.8391 1326 93.8391 1333.13 Q93.8391 1340.24 95.6447 1343.8 Q97.4734 1347.35 101.084 1347.35 Q104.719 1347.35 106.524 1343.8 Q108.353 1340.24 108.353 1333.13 Q108.353 1326 106.524 1322.46 Q104.719 1318.9 101.084 1318.9 M101.084 1315.19 Q106.895 1315.19 109.95 1319.8 Q113.029 1324.38 113.029 1333.13 Q113.029 1341.86 109.95 1346.47 Q106.895 1351.05 101.084 1351.05 Q95.2743 1351.05 92.1956 1346.47 Q89.1401 1341.86 89.1401 1333.13 Q89.1401 1324.38 92.1956 1319.8 Q95.2743 1315.19 101.084 1315.19 Z" fill="#000000" fill-rule="evenodd" fill-opacity="1" /><path clip-path="url(#clip900)" d="M121.246 1344.5 L126.131 1344.5 L126.131 1350.38 L121.246 1350.38 L121.246 1344.5 Z" fill="#000000" fill-rule="evenodd" fill-opacity="1" /><path clip-path="url(#clip900)" d="M146.894 1331.23 Q143.746 1331.23 141.894 1333.39 Q140.066 1335.54 140.066 1339.29 Q140.066 1343.02 141.894 1345.19 Q143.746 1347.35 146.894 1347.35 Q150.043 1347.35 151.871 1345.19 Q153.723 1343.02 153.723 1339.29 Q153.723 1335.54 151.871 1333.39 Q150.043 1331.23 146.894 1331.23 M156.177 1316.58 L156.177 1320.84 Q154.417 1320.01 152.612 1319.57 Q150.83 1319.13 149.07 1319.13 Q144.441 1319.13 141.987 1322.25 Q139.556 1325.38 139.209 1331.7 Q140.575 1329.68 142.635 1328.62 Q144.695 1327.53 147.172 1327.53 Q152.38 1327.53 155.39 1330.7 Q158.422 1333.85 158.422 1339.29 Q158.422 1344.61 155.274 1347.83 Q152.126 1351.05 146.894 1351.05 Q140.899 1351.05 137.728 1346.47 Q134.556 1341.86 134.556 1333.13 Q134.556 1324.94 138.445 1320.08 Q142.334 1315.19 148.885 1315.19 Q150.644 1315.19 152.427 1315.54 Q154.232 1315.89 156.177 1316.58 Z" fill="#000000" fill-rule="evenodd" fill-opacity="1" /><path clip-path="url(#clip900)" d="M50.9921 1168.76 L80.6679 1168.76 L80.6679 1172.7 L50.9921 1172.7 L50.9921 1168.76 Z" fill="#000000" fill-rule="evenodd" fill-opacity="1" /><path clip-path="url(#clip900)" d="M100.76 1154.11 Q97.1493 1154.11 95.3206 1157.67 Q93.515 1161.22 93.515 1168.35 Q93.515 1175.45 95.3206 1179.02 Q97.1493 1182.56 100.76 1182.56 Q104.395 1182.56 106.2 1179.02 Q108.029 1175.45 108.029 1168.35 Q108.029 1161.22 106.2 1157.67 Q104.395 1154.11 100.76 1154.11 M100.76 1150.41 Q106.571 1150.41 109.626 1155.01 Q112.705 1159.6 112.705 1168.35 Q112.705 1177.07 109.626 1181.68 Q106.571 1186.26 100.76 1186.26 Q94.9502 1186.26 91.8715 1181.68 Q88.816 1177.07 88.816 1168.35 Q88.816 1159.6 91.8715 1155.01 Q94.9502 1150.41 100.76 1150.41 Z" fill="#000000" fill-rule="evenodd" fill-opacity="1" /><path clip-path="url(#clip900)" d="M120.922 1179.71 L125.807 1179.71 L125.807 1185.59 L120.922 1185.59 L120.922 1179.71 Z" fill="#000000" fill-rule="evenodd" fill-opacity="1" /><path clip-path="url(#clip900)" d="M148.839 1155.11 L137.033 1173.55 L148.839 1173.55 L148.839 1155.11 M147.612 1151.03 L153.492 1151.03 L153.492 1173.55 L158.422 1173.55 L158.422 1177.44 L153.492 1177.44 L153.492 1185.59 L148.839 1185.59 L148.839 1177.44 L133.237 1177.44 L133.237 1172.93 L147.612 1151.03 Z" fill="#000000" fill-rule="evenodd" fill-opacity="1" /><path clip-path="url(#clip900)" d="M53.0754 1003.98 L82.7512 1003.98 L82.7512 1007.91 L53.0754 1007.91 L53.0754 1003.98 Z" fill="#000000" fill-rule="evenodd" fill-opacity="1" /><path clip-path="url(#clip900)" d="M102.844 989.324 Q99.2326 989.324 97.4039 992.888 Q95.5984 996.43 95.5984 1003.56 Q95.5984 1010.67 97.4039 1014.23 Q99.2326 1017.77 102.844 1017.77 Q106.478 1017.77 108.283 1014.23 Q110.112 1010.67 110.112 1003.56 Q110.112 996.43 108.283 992.888 Q106.478 989.324 102.844 989.324 M102.844 985.62 Q108.654 985.62 111.709 990.226 Q114.788 994.81 114.788 1003.56 Q114.788 1012.29 111.709 1016.89 Q108.654 1021.48 102.844 1021.48 Q97.0335 1021.48 93.9549 1016.89 Q90.8993 1012.29 90.8993 1003.56 Q90.8993 994.81 93.9549 990.226 Q97.0335 985.62 102.844 985.62 Z" fill="#000000" fill-rule="evenodd" fill-opacity="1" /><path clip-path="url(#clip900)" d="M123.006 1014.93 L127.89 1014.93 L127.89 1020.8 L123.006 1020.8 L123.006 1014.93 Z" fill="#000000" fill-rule="evenodd" fill-opacity="1" /><path clip-path="url(#clip900)" d="M142.103 1016.87 L158.422 1016.87 L158.422 1020.8 L136.478 1020.8 L136.478 1016.87 Q139.14 1014.12 143.723 1009.49 Q148.33 1004.83 149.51 1003.49 Q151.755 1000.97 152.635 999.231 Q153.538 997.472 153.538 995.782 Q153.538 993.027 151.593 991.291 Q149.672 989.555 146.57 989.555 Q144.371 989.555 141.918 990.319 Q139.487 991.083 136.709 992.634 L136.709 987.912 Q139.533 986.777 141.987 986.199 Q144.441 985.62 146.478 985.62 Q151.848 985.62 155.042 988.305 Q158.237 990.99 158.237 995.481 Q158.237 997.611 157.427 999.532 Q156.64 1001.43 154.533 1004.02 Q153.955 1004.69 150.853 1007.91 Q147.751 1011.11 142.103 1016.87 Z" fill="#000000" fill-rule="evenodd" fill-opacity="1" /><path clip-path="url(#clip900)" d="M101.246 824.537 Q97.6354 824.537 95.8067 828.102 Q94.0012 831.644 94.0012 838.773 Q94.0012 845.88 95.8067 849.444 Q97.6354 852.986 101.246 852.986 Q104.881 852.986 106.686 849.444 Q108.515 845.88 108.515 838.773 Q108.515 831.644 106.686 828.102 Q104.881 824.537 101.246 824.537 M101.246 820.833 Q107.057 820.833 110.112 825.44 Q113.191 830.023 113.191 838.773 Q113.191 847.5 110.112 852.106 Q107.057 856.69 101.246 856.69 Q95.4363 856.69 92.3576 852.106 Q89.3021 847.5 89.3021 838.773 Q89.3021 830.023 92.3576 825.44 Q95.4363 820.833 101.246 820.833 Z" fill="#000000" fill-rule="evenodd" fill-opacity="1" /><path clip-path="url(#clip900)" d="M121.408 850.139 L126.293 850.139 L126.293 856.018 L121.408 856.018 L121.408 850.139 Z" fill="#000000" fill-rule="evenodd" fill-opacity="1" /><path clip-path="url(#clip900)" d="M146.478 824.537 Q142.867 824.537 141.038 828.102 Q139.232 831.644 139.232 838.773 Q139.232 845.88 141.038 849.444 Q142.867 852.986 146.478 852.986 Q150.112 852.986 151.918 849.444 Q153.746 845.88 153.746 838.773 Q153.746 831.644 151.918 828.102 Q150.112 824.537 146.478 824.537 M146.478 820.833 Q152.288 820.833 155.343 825.44 Q158.422 830.023 158.422 838.773 Q158.422 847.5 155.343 852.106 Q152.288 856.69 146.478 856.69 Q140.668 856.69 137.589 852.106 Q134.533 847.5 134.533 838.773 Q134.533 830.023 137.589 825.44 Q140.668 820.833 146.478 820.833 Z" fill="#000000" fill-rule="evenodd" fill-opacity="1" /><path clip-path="url(#clip900)" d="M102.844 659.751 Q99.2326 659.751 97.4039 663.315 Q95.5984 666.857 95.5984 673.987 Q95.5984 681.093 97.4039 684.658 Q99.2326 688.2 102.844 688.2 Q106.478 688.2 108.283 684.658 Q110.112 681.093 110.112 673.987 Q110.112 666.857 108.283 663.315 Q106.478 659.751 102.844 659.751 M102.844 656.047 Q108.654 656.047 111.709 660.653 Q114.788 665.237 114.788 673.987 Q114.788 682.713 111.709 687.32 Q108.654 691.903 102.844 691.903 Q97.0335 691.903 93.9549 687.32 Q90.8993 682.713 90.8993 673.987 Q90.8993 665.237 93.9549 660.653 Q97.0335 656.047 102.844 656.047 Z" fill="#000000" fill-rule="evenodd" fill-opacity="1" /><path clip-path="url(#clip900)" d="M123.006 685.352 L127.89 685.352 L127.89 691.232 L123.006 691.232 L123.006 685.352 Z" fill="#000000" fill-rule="evenodd" fill-opacity="1" /><path clip-path="url(#clip900)" d="M142.103 687.297 L158.422 687.297 L158.422 691.232 L136.478 691.232 L136.478 687.297 Q139.14 684.542 143.723 679.913 Q148.33 675.26 149.51 673.917 Q151.755 671.394 152.635 669.658 Q153.538 667.899 153.538 666.209 Q153.538 663.454 151.593 661.718 Q149.672 659.982 146.57 659.982 Q144.371 659.982 141.918 660.746 Q139.487 661.51 136.709 663.061 L136.709 658.339 Q139.533 657.204 141.987 656.626 Q144.441 656.047 146.478 656.047 Q151.848 656.047 155.042 658.732 Q158.237 661.417 158.237 665.908 Q158.237 668.038 157.427 669.959 Q156.64 671.857 154.533 674.45 Q153.955 675.121 150.853 678.338 Q147.751 681.533 142.103 687.297 Z" fill="#000000" fill-rule="evenodd" fill-opacity="1" /><path clip-path="url(#clip900)" d="M100.76 494.964 Q97.1493 494.964 95.3206 498.529 Q93.515 502.071 93.515 509.2 Q93.515 516.307 95.3206 519.871 Q97.1493 523.413 100.76 523.413 Q104.395 523.413 106.2 519.871 Q108.029 516.307 108.029 509.2 Q108.029 502.071 106.2 498.529 Q104.395 494.964 100.76 494.964 M100.76 491.26 Q106.571 491.26 109.626 495.867 Q112.705 500.45 112.705 509.2 Q112.705 517.927 109.626 522.533 Q106.571 527.117 100.76 527.117 Q94.9502 527.117 91.8715 522.533 Q88.816 517.927 88.816 509.2 Q88.816 500.45 91.8715 495.867 Q94.9502 491.26 100.76 491.26 Z" fill="#000000" fill-rule="evenodd" fill-opacity="1" /><path clip-path="url(#clip900)" d="M120.922 520.566 L125.807 520.566 L125.807 526.445 L120.922 526.445 L120.922 520.566 Z" fill="#000000" fill-rule="evenodd" fill-opacity="1" /><path clip-path="url(#clip900)" d="M148.839 495.959 L137.033 514.408 L148.839 514.408 L148.839 495.959 M147.612 491.885 L153.492 491.885 L153.492 514.408 L158.422 514.408 L158.422 518.297 L153.492 518.297 L153.492 526.445 L148.839 526.445 L148.839 518.297 L133.237 518.297 L133.237 513.783 L147.612 491.885 Z" fill="#000000" fill-rule="evenodd" fill-opacity="1" /><path clip-path="url(#clip900)" d="M101.084 330.178 Q97.4734 330.178 95.6447 333.742 Q93.8391 337.284 93.8391 344.414 Q93.8391 351.52 95.6447 355.085 Q97.4734 358.627 101.084 358.627 Q104.719 358.627 106.524 355.085 Q108.353 351.52 108.353 344.414 Q108.353 337.284 106.524 333.742 Q104.719 330.178 101.084 330.178 M101.084 326.474 Q106.895 326.474 109.95 331.08 Q113.029 335.664 113.029 344.414 Q113.029 353.14 109.95 357.747 Q106.895 362.33 101.084 362.33 Q95.2743 362.33 92.1956 357.747 Q89.1401 353.14 89.1401 344.414 Q89.1401 335.664 92.1956 331.08 Q95.2743 326.474 101.084 326.474 Z" fill="#000000" fill-rule="evenodd" fill-opacity="1" /><path clip-path="url(#clip900)" d="M121.246 355.779 L126.131 355.779 L126.131 361.659 L121.246 361.659 L121.246 355.779 Z" fill="#000000" fill-rule="evenodd" fill-opacity="1" /><path clip-path="url(#clip900)" d="M146.894 342.516 Q143.746 342.516 141.894 344.668 Q140.066 346.821 140.066 350.571 Q140.066 354.298 141.894 356.474 Q143.746 358.627 146.894 358.627 Q150.043 358.627 151.871 356.474 Q153.723 354.298 153.723 350.571 Q153.723 346.821 151.871 344.668 Q150.043 342.516 146.894 342.516 M156.177 327.863 L156.177 332.122 Q154.417 331.289 152.612 330.849 Q150.83 330.409 149.07 330.409 Q144.441 330.409 141.987 333.534 Q139.556 336.659 139.209 342.978 Q140.575 340.965 142.635 339.9 Q144.695 338.812 147.172 338.812 Q152.38 338.812 155.39 341.983 Q158.422 345.131 158.422 350.571 Q158.422 355.895 155.274 359.113 Q152.126 362.33 146.894 362.33 Q140.899 362.33 137.728 357.747 Q134.556 353.14 134.556 344.414 Q134.556 336.219 138.445 331.358 Q142.334 326.474 148.885 326.474 Q150.644 326.474 152.427 326.821 Q154.232 327.168 156.177 327.863 Z" fill="#000000" fill-rule="evenodd" fill-opacity="1" /><path clip-path="url(#clip900)" d="M101.339 165.391 Q97.728 165.391 95.8993 168.956 Q94.0937 172.498 94.0937 179.627 Q94.0937 186.734 95.8993 190.298 Q97.728 193.84 101.339 193.84 Q104.973 193.84 106.779 190.298 Q108.608 186.734 108.608 179.627 Q108.608 172.498 106.779 168.956 Q104.973 165.391 101.339 165.391 M101.339 161.687 Q107.149 161.687 110.205 166.294 Q113.283 170.877 113.283 179.627 Q113.283 188.354 110.205 192.96 Q107.149 197.544 101.339 197.544 Q95.5289 197.544 92.4502 192.96 Q89.3947 188.354 89.3947 179.627 Q89.3947 170.877 92.4502 166.294 Q95.5289 161.687 101.339 161.687 Z" fill="#000000" fill-rule="evenodd" fill-opacity="1" /><path clip-path="url(#clip900)" d="M121.501 190.993 L126.385 190.993 L126.385 196.872 L121.501 196.872 L121.501 190.993 Z" fill="#000000" fill-rule="evenodd" fill-opacity="1" /><path clip-path="url(#clip900)" d="M146.57 180.46 Q143.237 180.46 141.316 182.243 Q139.418 184.025 139.418 187.15 Q139.418 190.275 141.316 192.058 Q143.237 193.84 146.57 193.84 Q149.904 193.84 151.825 192.058 Q153.746 190.252 153.746 187.15 Q153.746 184.025 151.825 182.243 Q149.927 180.46 146.57 180.46 M141.894 178.47 Q138.885 177.729 137.195 175.669 Q135.529 173.609 135.529 170.646 Q135.529 166.502 138.469 164.095 Q141.431 161.687 146.57 161.687 Q151.732 161.687 154.672 164.095 Q157.612 166.502 157.612 170.646 Q157.612 173.609 155.922 175.669 Q154.255 177.729 151.269 178.47 Q154.649 179.257 156.524 181.548 Q158.422 183.84 158.422 187.15 Q158.422 192.173 155.343 194.859 Q152.288 197.544 146.57 197.544 Q140.853 197.544 137.774 194.859 Q134.719 192.173 134.719 187.15 Q134.719 183.84 136.617 181.548 Q138.515 179.257 141.894 178.47 M140.181 171.086 Q140.181 173.771 141.848 175.275 Q143.538 176.78 146.57 176.78 Q149.58 176.78 151.269 175.275 Q152.982 173.771 152.982 171.086 Q152.982 168.4 151.269 166.896 Q149.58 165.391 146.57 165.391 Q143.538 165.391 141.848 166.896 Q140.181 168.4 140.181 171.086 Z" fill="#000000" fill-rule="evenodd" fill-opacity="1" /><polyline clip-path="url(#clip902)" style="stroke:#009af9; stroke-linecap:round; stroke-linejoin:round; stroke-width:4; stroke-opacity:1; fill:none" points="255.507,376.662 259.588,338.512 263.668,300.713 267.748,263.873 271.829,228.654 275.909,195.756 279.99,165.91 284.07,139.86 288.151,118.345 292.231,102.084 296.312,91.7556 300.392,87.9763 304.473,91.2819 308.553,102.108 312.634,120.773 316.714,147.459 320.795,182.201 324.875,224.878 328.956,275.203 333.036,332.722 337.117,396.816 341.197,466.708 345.278,541.475 349.358,620.061 353.439,701.298 357.519,783.933 361.6,866.646 365.68,948.09 369.761,1026.91 373.841,1101.79 377.922,1171.47 382.002,1234.76 386.083,1290.63 390.163,1338.15 394.244,1376.58 398.324,1405.35 402.405,1424.08 406.485,1432.6 410.566,1430.93 414.646,1419.28 418.727,1398.05 422.807,1367.83 426.888,1329.35 430.968,1283.47 435.049,1231.18 439.129,1173.55 443.21,1111.7 447.29,1046.8 451.37,980.044 455.451,912.59 459.531,845.578 463.612,780.094 467.692,717.155 471.773,657.7 475.853,602.573 479.934,552.521 484.014,508.184 488.095,470.093 492.175,438.669 496.256,414.224 500.336,396.96 504.417,386.972 508.497,384.255 512.578,388.702 516.658,400.112 520.739,418.195 524.819,442.575 528.9,472.8 532.98,508.342 537.061,548.611 541.141,592.955 545.222,640.675 549.302,691.031 553.383,743.25 557.463,796.537 561.544,850.086 565.624,903.092 569.705,954.758 573.785,1004.31 577.866,1051.01 581.946,1094.15 586.027,1133.09 590.107,1167.25 594.188,1196.12 598.268,1219.26 602.349,1236.35 606.429,1247.13 610.51,1251.47 614.59,1249.31 618.671,1240.72 622.751,1225.88 626.832,1205.07 630.912,1178.68 634.992,1147.18 639.073,1111.15 643.153,1071.25 647.234,1028.21 651.314,982.814 655.395,935.884 659.475,888.272 663.556,840.833 667.636,794.408 671.717,749.805 675.797,707.781 679.878,669.026 683.958,634.145 688.039,603.65 692.119,577.947 696.2,557.331 700.28,541.984 704.361,531.976 708.441,527.27 712.522,527.728 716.602,533.124 720.683,543.155 724.763,557.454 728.844,575.606 732.924,597.16 737.005,621.645 741.085,648.58 745.166,677.484 749.246,707.885 753.327,739.327 757.407,771.37 761.488,803.593 765.568,835.598 769.649,867.003 773.729,897.442 777.81,926.565 781.89,954.033 785.971,979.523 790.051,1002.72 794.132,1023.33 798.212,1041.06 802.293,1055.67 806.373,1066.92 810.454,1074.62 814.534,1078.63 818.614,1078.84 822.695,1075.22 826.775,1067.8 830.856,1056.66 834.936,1041.99 839.017,1024.02 843.097,1003.06 847.178,979.492 851.258,953.751 855.339,926.326 859.419,897.744 863.5,868.562 867.58,839.345 871.661,810.662 875.741,783.065 879.822,757.078 883.902,733.182 887.983,711.807 892.063,693.319 896.144,678.014 900.224,666.113 904.305,657.755 908.385,653.002 912.466,651.836 916.546,654.163 920.627,659.821 924.707,668.583 928.788,680.169 932.868,694.255 936.949,710.481 941.029,728.462 945.11,747.8 949.19,768.094 953.271,788.948 957.351,809.981 961.432,830.832 965.512,851.17 969.593,870.698 973.673,889.153 977.754,906.313 981.834,921.993 985.915,936.049 989.995,948.374 994.076,958.894 998.156,967.568 1002.24,974.381 1006.32,979.342 1010.4,982.482 1014.48,983.843 1018.56,983.482 1022.64,981.465 1026.72,977.862 1030.8,972.75 1034.88,966.209 1038.96,958.321 1043.04,949.172 1047.12,938.851 1051.2,927.454 1055.28,915.081 1059.36,901.841 1063.44,887.852 1067.52,873.242 1071.6,858.151 1075.69,842.732 1079.77,827.146 1083.85,811.571 1087.93,796.19 1092.01,781.197 1096.09,766.79 1100.17,753.173 1104.25,740.545 1108.33,729.104 1112.41,719.037 1116.49,710.519 1120.57,703.706 1124.65,698.735 1128.73,695.715 1132.81,694.727 1136.89,695.819 1140.97,699.004 1145.05,704.258 1149.13,711.52 1153.21,720.691 1157.3,731.633 1161.38,744.172 1165.46,758.103 1169.54,773.189 1173.62,789.169 1177.7,805.758 1181.78,822.66 1185.86,839.567 1189.94,856.172 1194.02,872.172 1198.1,887.274 1202.18,901.208 1206.26,913.726 1210.34,924.613 1214.42,933.691 1218.5,940.824 1222.58,945.919 1226.66,948.93 1230.74,949.86 1234.82,948.756 1238.9,945.712 1242.99,940.863 1247.07,934.382 1251.15,926.472 1255.23,917.363 1259.31,907.302 1263.39,896.548 1267.47,885.365 1271.55,874.009 1275.63,862.731 1279.71,851.76 1283.79,841.306 1287.87,831.552 1291.95,822.652 1296.03,814.725 1300.11,807.864 1304.19,802.124 1308.27,797.535 1312.35,794.099 1316.43,791.792 1320.51,790.573 1324.6,790.385 1328.68,791.161 1332.76,792.828 1336.84,795.312 1340.92,798.54 1345,802.444 1349.08,806.966 1353.16,812.052 1357.24,817.659 1361.32,823.754 1365.4,830.306 1369.48,837.292 1373.56,844.688 1377.64,852.467 1381.72,860.596 1385.8,869.033 1389.88,877.719 1393.96,886.582 1398.04,895.527 1402.12,904.439 1406.2,913.183 1410.29,921.601 1414.37,929.519 1418.45,936.747 1422.53,943.087 1426.61,948.337 1430.69,952.298 1434.77,954.784 1438.85,955.629 1442.93,954.698 1447.01,951.89 1451.09,947.152 1455.17,940.478 1459.25,931.919 1463.33,921.586 1467.41,909.643 1471.49,896.315 1475.57,881.875 1479.65,866.642 1483.73,850.971 1487.81,835.239 1491.9,819.839 1495.98,805.159 1500.06,791.571 1504.14,779.423 1508.22,769.016 1512.3,760.603 1516.38,754.371 1520.46,750.443 1524.54,748.867 1528.62,749.621 1532.7,752.61 1536.78,757.674 1540.86,764.596 1544.94,773.112 1549.02,782.92 1553.1,793.696 1557.18,805.106 1561.26,816.816 1565.34,828.51 1569.42,839.896 1573.5,850.717 1577.59,860.756 1581.67,869.843 1585.75,877.855 1589.83,884.718 1593.91,890.401 1597.99,894.915 1602.07,898.305 1606.15,900.642 1610.23,902.02 1614.31,902.544 1618.39,902.324 1622.47,901.468 1626.55,900.078 1630.63,898.243 1634.71,896.037 1638.79,893.518 1642.87,890.729 1646.95,887.695 1651.03,884.428 1655.11,880.93 1659.2,877.196 1663.28,873.219 1667.36,868.992 1671.44,864.513 1675.52,859.788 1679.6,854.837 1683.68,849.69 1687.76,844.393 1691.84,839.005 1695.92,833.601 1700,828.268 1704.08,823.103 1708.16,818.209 1712.24,813.696 1716.32,809.67 1720.4,806.235 1724.48,803.488 1728.56,801.51 1732.64,800.369 1736.72,800.113 1740.8,800.767 1744.89,802.333 1748.97,804.79 1753.05,808.088 1757.13,812.155 1761.21,816.897 1765.29,822.197 1769.37,827.925 1773.45,833.934 1777.53,840.07 1781.61,846.177 1785.69,852.1 1789.77,857.688 1793.85,862.807 1797.93,867.334 1802.01,871.167 1806.09,874.229 1810.17,876.464 1814.25,877.844 1818.33,878.365 1822.41,878.046 1826.5,876.932 1830.58,875.081 1834.66,872.573 1838.74,869.494 1842.82,865.939 1846.9,862.009 1850.98,857.799 1855.06,853.403 1859.14,848.906 1863.22,844.386 1867.3,839.908 1871.38,835.527 1875.46,831.289 1879.54,827.229 1883.62,823.374 1887.7,819.748 1891.78,816.37 1895.86,813.258 1899.94,810.433 1904.02,807.916 1908.11,805.735 1912.19,803.921 1916.27,802.51 1920.35,801.539 1924.43,801.049 1928.51,801.08 1932.59,801.667 1936.67,802.839 1940.75,804.617 1944.83,807.007 1948.91,810.003 1952.99,813.581 1957.07,817.699 1961.15,822.297 1965.23,827.297 1969.31,832.606 1973.39,838.117 1977.47,843.712 1981.55,849.268 1985.63,854.659 1989.71,859.764 1993.8,864.467 1997.88,868.668 2001.96,872.281 2006.04,875.242 2010.12,877.508 2014.2,879.063 2018.28,879.913 2022.36,880.092 2026.44,879.654 2030.52,878.673 2034.6,877.241 2038.68,875.459 2042.76,873.437 2046.84,871.286 2050.92,869.111 2055,867.012 2059.08,865.074 2063.16,863.364 2067.24,861.932 2071.32,860.804 2075.41,859.987 2079.49,859.463 2083.57,859.198 2087.65,859.137 2091.73,859.215 2095.81,859.353 2099.89,859.472 2103.97,859.488 2108.05,859.326 2112.13,858.918 2116.21,858.208 2120.29,857.159 2124.37,855.754 2128.45,853.993 2132.53,851.901 2136.61,849.522 2140.69,846.919 2144.77,844.174 2148.85,841.379 2152.93,838.638 2157.01,836.059 2161.1,833.752 2165.18,831.82 2169.26,830.361 2173.34,829.456 2177.42,829.173 2181.5,829.559 2185.58,830.639 2189.66,832.419 2193.74,834.88 2197.82,837.98 2201.9,841.659 2205.98,845.839 2210.06,850.425 2214.14,855.313 2218.22,860.389 2222.3,865.535 2226.38,870.636 2230.46,875.576 2234.54,880.251 2238.62,884.563 2242.71,888.43 2246.79,891.783 2250.87,894.569 2254.95,896.752 2259.03,898.311 2263.11,899.244 2267.19,899.562 2271.27,899.289 2275.35,898.464 2279.43,897.132 2283.51,895.35 2287.59,893.177 2291.67,890.676 "/>
<circle clip-path="url(#clip902)" cx="567.791" cy="936.869" r="14.4" fill="#e26f46" fill-rule="evenodd" fill-opacity="1" stroke="#000000" stroke-opacity="1" stroke-width="3.2"/>
<circle clip-path="url(#clip902)" cx="1377.43" cy="828.679" r="14.4" fill="#e26f46" fill-rule="evenodd" fill-opacity="1" stroke="#000000" stroke-opacity="1" stroke-width="3.2"/>
<circle clip-path="url(#clip902)" cx="1981.26" cy="847.053" r="14.4" fill="#e26f46" fill-rule="evenodd" fill-opacity="1" stroke="#000000" stroke-opacity="1" stroke-width="3.2"/>
<circle clip-path="url(#clip902)" cx="1765.36" cy="821.711" r="14.4" fill="#e26f46" fill-rule="evenodd" fill-opacity="1" stroke="#000000" stroke-opacity="1" stroke-width="3.2"/>
<circle clip-path="url(#clip902)" cx="2141.05" cy="848.254" r="14.4" fill="#e26f46" fill-rule="evenodd" fill-opacity="1" stroke="#000000" stroke-opacity="1" stroke-width="3.2"/>
<circle clip-path="url(#clip902)" cx="320.009" cy="168.249" r="14.4" fill="#e26f46" fill-rule="evenodd" fill-opacity="1" stroke="#000000" stroke-opacity="1" stroke-width="3.2"/>
<circle clip-path="url(#clip902)" cx="2044.08" cy="871.342" r="14.4" fill="#e26f46" fill-rule="evenodd" fill-opacity="1" stroke="#000000" stroke-opacity="1" stroke-width="3.2"/>
<circle clip-path="url(#clip902)" cx="1072.03" cy="847.944" r="14.4" fill="#e26f46" fill-rule="evenodd" fill-opacity="1" stroke="#000000" stroke-opacity="1" stroke-width="3.2"/>
<circle clip-path="url(#clip902)" cx="1038.96" cy="958.108" r="14.4" fill="#e26f46" fill-rule="evenodd" fill-opacity="1" stroke="#000000" stroke-opacity="1" stroke-width="3.2"/>
<circle clip-path="url(#clip902)" cx="1245.48" cy="940.208" r="14.4" fill="#e26f46" fill-rule="evenodd" fill-opacity="1" stroke="#000000" stroke-opacity="1" stroke-width="3.2"/>
<circle clip-path="url(#clip902)" cx="1659.66" cy="878.191" r="14.4" fill="#e26f46" fill-rule="evenodd" fill-opacity="1" stroke="#000000" stroke-opacity="1" stroke-width="3.2"/>
<circle clip-path="url(#clip902)" cx="451.662" cy="971.305" r="14.4" fill="#e26f46" fill-rule="evenodd" fill-opacity="1" stroke="#000000" stroke-opacity="1" stroke-width="3.2"/>
<circle clip-path="url(#clip902)" cx="1506.4" cy="751.583" r="14.4" fill="#e26f46" fill-rule="evenodd" fill-opacity="1" stroke="#000000" stroke-opacity="1" stroke-width="3.2"/>
<circle clip-path="url(#clip902)" cx="2237.26" cy="883.796" r="14.4" fill="#e26f46" fill-rule="evenodd" fill-opacity="1" stroke="#000000" stroke-opacity="1" stroke-width="3.2"/>
<circle clip-path="url(#clip902)" cx="2165.58" cy="830.001" r="14.4" fill="#e26f46" fill-rule="evenodd" fill-opacity="1" stroke="#000000" stroke-opacity="1" stroke-width="3.2"/>
<circle clip-path="url(#clip902)" cx="1656.38" cy="860.003" r="14.4" fill="#e26f46" fill-rule="evenodd" fill-opacity="1" stroke="#000000" stroke-opacity="1" stroke-width="3.2"/>
<circle clip-path="url(#clip902)" cx="695.327" cy="574.222" r="14.4" fill="#e26f46" fill-rule="evenodd" fill-opacity="1" stroke="#000000" stroke-opacity="1" stroke-width="3.2"/>
<circle clip-path="url(#clip902)" cx="1376.98" cy="874.471" r="14.4" fill="#e26f46" fill-rule="evenodd" fill-opacity="1" stroke="#000000" stroke-opacity="1" stroke-width="3.2"/>
<circle clip-path="url(#clip902)" cx="1069.39" cy="875.598" r="14.4" fill="#e26f46" fill-rule="evenodd" fill-opacity="1" stroke="#000000" stroke-opacity="1" stroke-width="3.2"/>
<circle clip-path="url(#clip902)" cx="736.486" cy="624.542" r="14.4" fill="#e26f46" fill-rule="evenodd" fill-opacity="1" stroke="#000000" stroke-opacity="1" stroke-width="3.2"/>
<circle clip-path="url(#clip902)" cx="1850.68" cy="843.335" r="14.4" fill="#e26f46" fill-rule="evenodd" fill-opacity="1" stroke="#000000" stroke-opacity="1" stroke-width="3.2"/>
<circle clip-path="url(#clip902)" cx="988.345" cy="936.967" r="14.4" fill="#e26f46" fill-rule="evenodd" fill-opacity="1" stroke="#000000" stroke-opacity="1" stroke-width="3.2"/>
<circle clip-path="url(#clip902)" cx="1273.98" cy="871.952" r="14.4" fill="#e26f46" fill-rule="evenodd" fill-opacity="1" stroke="#000000" stroke-opacity="1" stroke-width="3.2"/>
<circle clip-path="url(#clip902)" cx="911.347" cy="649.797" r="14.4" fill="#e26f46" fill-rule="evenodd" fill-opacity="1" stroke="#000000" stroke-opacity="1" stroke-width="3.2"/>
<circle clip-path="url(#clip902)" cx="831.535" cy="1078.28" r="14.4" fill="#e26f46" fill-rule="evenodd" fill-opacity="1" stroke="#000000" stroke-opacity="1" stroke-width="3.2"/>
<circle clip-path="url(#clip902)" cx="1830.96" cy="888.179" r="14.4" fill="#e26f46" fill-rule="evenodd" fill-opacity="1" stroke="#000000" stroke-opacity="1" stroke-width="3.2"/>
<circle clip-path="url(#clip902)" cx="693.57" cy="544.996" r="14.4" fill="#e26f46" fill-rule="evenodd" fill-opacity="1" stroke="#000000" stroke-opacity="1" stroke-width="3.2"/>
<circle clip-path="url(#clip902)" cx="1697.63" cy="830.9" r="14.4" fill="#e26f46" fill-rule="evenodd" fill-opacity="1" stroke="#000000" stroke-opacity="1" stroke-width="3.2"/>
<circle clip-path="url(#clip902)" cx="1567.96" cy="840.513" r="14.4" fill="#e26f46" fill-rule="evenodd" fill-opacity="1" stroke="#000000" stroke-opacity="1" stroke-width="3.2"/>
<circle clip-path="url(#clip902)" cx="1068.22" cy="870.709" r="14.4" fill="#e26f46" fill-rule="evenodd" fill-opacity="1" stroke="#000000" stroke-opacity="1" stroke-width="3.2"/>
<circle clip-path="url(#clip902)" cx="1873.52" cy="848.283" r="14.4" fill="#e26f46" fill-rule="evenodd" fill-opacity="1" stroke="#000000" stroke-opacity="1" stroke-width="3.2"/>
<circle clip-path="url(#clip902)" cx="665.548" cy="825.836" r="14.4" fill="#e26f46" fill-rule="evenodd" fill-opacity="1" stroke="#000000" stroke-opacity="1" stroke-width="3.2"/>
<circle clip-path="url(#clip902)" cx="578.777" cy="1060.91" r="14.4" fill="#e26f46" fill-rule="evenodd" fill-opacity="1" stroke="#000000" stroke-opacity="1" stroke-width="3.2"/>
<circle clip-path="url(#clip902)" cx="1880.14" cy="818.216" r="14.4" fill="#e26f46" fill-rule="evenodd" fill-opacity="1" stroke="#000000" stroke-opacity="1" stroke-width="3.2"/>
<circle clip-path="url(#clip902)" cx="1656.63" cy="898.864" r="14.4" fill="#e26f46" fill-rule="evenodd" fill-opacity="1" stroke="#000000" stroke-opacity="1" stroke-width="3.2"/>
<circle clip-path="url(#clip902)" cx="836.565" cy="1015.42" r="14.4" fill="#e26f46" fill-rule="evenodd" fill-opacity="1" stroke="#000000" stroke-opacity="1" stroke-width="3.2"/>
<circle clip-path="url(#clip902)" cx="1497.66" cy="830.24" r="14.4" fill="#e26f46" fill-rule="evenodd" fill-opacity="1" stroke="#000000" stroke-opacity="1" stroke-width="3.2"/>
<circle clip-path="url(#clip902)" cx="404.129" cy="1445.72" r="14.4" fill="#e26f46" fill-rule="evenodd" fill-opacity="1" stroke="#000000" stroke-opacity="1" stroke-width="3.2"/>
<circle clip-path="url(#clip902)" cx="399.679" cy="1404.12" r="14.4" fill="#e26f46" fill-rule="evenodd" fill-opacity="1" stroke="#000000" stroke-opacity="1" stroke-width="3.2"/>
<circle clip-path="url(#clip902)" cx="778.819" cy="928.467" r="14.4" fill="#e26f46" fill-rule="evenodd" fill-opacity="1" stroke="#000000" stroke-opacity="1" stroke-width="3.2"/>
<circle clip-path="url(#clip902)" cx="1271.69" cy="866.369" r="14.4" fill="#e26f46" fill-rule="evenodd" fill-opacity="1" stroke="#000000" stroke-opacity="1" stroke-width="3.2"/>
<circle clip-path="url(#clip902)" cx="1113.88" cy="716.076" r="14.4" fill="#e26f46" fill-rule="evenodd" fill-opacity="1" stroke="#000000" stroke-opacity="1" stroke-width="3.2"/>
<circle clip-path="url(#clip902)" cx="309.205" cy="105.348" r="14.4" fill="#e26f46" fill-rule="evenodd" fill-opacity="1" stroke="#000000" stroke-opacity="1" stroke-width="3.2"/>
<circle clip-path="url(#clip902)" cx="2008.73" cy="879.724" r="14.4" fill="#e26f46" fill-rule="evenodd" fill-opacity="1" stroke="#000000" stroke-opacity="1" stroke-width="3.2"/>
<circle clip-path="url(#clip902)" cx="543.152" cy="609.544" r="14.4" fill="#e26f46" fill-rule="evenodd" fill-opacity="1" stroke="#000000" stroke-opacity="1" stroke-width="3.2"/>
<circle clip-path="url(#clip902)" cx="1819.12" cy="873.892" r="14.4" fill="#e26f46" fill-rule="evenodd" fill-opacity="1" stroke="#000000" stroke-opacity="1" stroke-width="3.2"/>
<circle clip-path="url(#clip902)" cx="985.153" cy="941.352" r="14.4" fill="#e26f46" fill-rule="evenodd" fill-opacity="1" stroke="#000000" stroke-opacity="1" stroke-width="3.2"/>
<circle clip-path="url(#clip902)" cx="1595.65" cy="890" r="14.4" fill="#e26f46" fill-rule="evenodd" fill-opacity="1" stroke="#000000" stroke-opacity="1" stroke-width="3.2"/>
<circle clip-path="url(#clip902)" cx="1138.93" cy="695.747" r="14.4" fill="#e26f46" fill-rule="evenodd" fill-opacity="1" stroke="#000000" stroke-opacity="1" stroke-width="3.2"/>
<circle clip-path="url(#clip902)" cx="1495.04" cy="797.398" r="14.4" fill="#e26f46" fill-rule="evenodd" fill-opacity="1" stroke="#000000" stroke-opacity="1" stroke-width="3.2"/>
<path clip-path="url(#clip900)" d="M2012.55 250.738 L2280.81 250.738 L2280.81 95.2176 L2012.55 95.2176  Z" fill="#ffffff" fill-rule="evenodd" fill-opacity="1"/>
<polyline clip-path="url(#clip900)" style="stroke:#000000; stroke-linecap:round; stroke-linejoin:round; stroke-width:4; stroke-opacity:1; fill:none" points="2012.55,250.738 2280.81,250.738 2280.81,95.2176 2012.55,95.2176 2012.55,250.738 "/>
<polyline clip-path="url(#clip900)" style="stroke:#009af9; stroke-linecap:round; stroke-linejoin:round; stroke-width:4; stroke-opacity:1; fill:none" points="2036.53,147.058 2180.42,147.058 "/>
<path clip-path="url(#clip900)" d="M2218.24 166.745 Q2216.44 171.375 2214.72 172.787 Q2213.01 174.199 2210.14 174.199 L2206.74 174.199 L2206.74 170.634 L2209.24 170.634 Q2211 170.634 2211.97 169.8 Q2212.94 168.967 2214.12 165.865 L2214.89 163.921 L2204.4 138.412 L2208.91 138.412 L2217.02 158.689 L2225.12 138.412 L2229.63 138.412 L2218.24 166.745 Z" fill="#000000" fill-rule="evenodd" fill-opacity="1" /><path clip-path="url(#clip900)" d="M2236.92 160.402 L2244.56 160.402 L2244.56 134.037 L2236.25 135.703 L2236.25 131.444 L2244.52 129.778 L2249.19 129.778 L2249.19 160.402 L2256.83 160.402 L2256.83 164.338 L2236.92 164.338 L2236.92 160.402 Z" fill="#000000" fill-rule="evenodd" fill-opacity="1" /><circle clip-path="url(#clip900)" cx="2108.47" cy="198.898" r="23.04" fill="#e26f46" fill-rule="evenodd" fill-opacity="1" stroke="#000000" stroke-opacity="1" stroke-width="5.12"/>
<path clip-path="url(#clip900)" d="M2218.24 218.585 Q2216.44 223.215 2214.72 224.627 Q2213.01 226.039 2210.14 226.039 L2206.74 226.039 L2206.74 222.474 L2209.24 222.474 Q2211 222.474 2211.97 221.64 Q2212.94 220.807 2214.12 217.705 L2214.89 215.761 L2204.4 190.252 L2208.91 190.252 L2217.02 210.529 L2225.12 190.252 L2229.63 190.252 L2218.24 218.585 Z" fill="#000000" fill-rule="evenodd" fill-opacity="1" /><path clip-path="url(#clip900)" d="M2240.14 212.242 L2256.46 212.242 L2256.46 216.178 L2234.52 216.178 L2234.52 212.242 Q2237.18 209.488 2241.76 204.858 Q2246.37 200.205 2247.55 198.863 Q2249.79 196.34 2250.67 194.604 Q2251.58 192.844 2251.58 191.155 Q2251.58 188.4 2249.63 186.664 Q2247.71 184.928 2244.61 184.928 Q2242.41 184.928 2239.96 185.692 Q2237.52 186.455 2234.75 188.006 L2234.75 183.284 Q2237.57 182.15 2240.02 181.571 Q2242.48 180.993 2244.52 180.993 Q2249.89 180.993 2253.08 183.678 Q2256.27 186.363 2256.27 190.854 Q2256.27 192.983 2255.46 194.905 Q2254.68 196.803 2252.57 199.395 Q2251.99 200.067 2248.89 203.284 Q2245.79 206.479 2240.14 212.242 Z" fill="#000000" fill-rule="evenodd" fill-opacity="1" /></svg>
