<?xml version="1.0" encoding="utf-8"?>
<svg xmlns="http://www.w3.org/2000/svg" xmlns:xlink="http://www.w3.org/1999/xlink" width="600" height="400" viewBox="0 0 2400 1600">
<defs>
  <clipPath id="clip820">
    <rect x="0" y="0" width="2400" height="1600"/>
  </clipPath>
</defs>
<path clip-path="url(#clip820)" d="M0 1600 L2400 1600 L2400 0 L0 0  Z" fill="#ffffff" fill-rule="evenodd" fill-opacity="1"/>
<defs>
  <clipPath id="clip821">
    <rect x="480" y="0" width="1681" height="1600"/>
  </clipPath>
</defs>
<path clip-path="url(#clip820)" d="M521.835 1486.45 L2352.76 1486.45 L2352.76 47.2441 L521.835 47.2441  Z" fill="#ffffff" fill-rule="evenodd" fill-opacity="1"/>
<defs>
  <clipPath id="clip822">
    <rect x="521" y="47" width="1832" height="1440"/>
  </clipPath>
</defs>
<polyline clip-path="url(#clip822)" style="stroke:#000000; stroke-linecap:round; stroke-linejoin:round; stroke-width:2; stroke-opacity:0.1; fill:none" points="717.594,1487.5 717.594,48.4375 "/>
<polyline clip-path="url(#clip822)" style="stroke:#000000; stroke-linecap:round; stroke-linejoin:round; stroke-width:2; stroke-opacity:0.1; fill:none" points="1077.44,1487.5 1077.44,48.4375 "/>
<polyline clip-path="url(#clip822)" style="stroke:#000000; stroke-linecap:round; stroke-linejoin:round; stroke-width:2; stroke-opacity:0.1; fill:none" points="1437.3,1487.5 1437.3,48.4375 "/>
<polyline clip-path="url(#clip822)" style="stroke:#000000; stroke-linecap:round; stroke-linejoin:round; stroke-width:2; stroke-opacity:0.1; fill:none" points="1797.15,1487.5 1797.15,48.4375 "/>
<polyline clip-path="url(#clip822)" style="stroke:#000000; stroke-linecap:round; stroke-linejoin:round; stroke-width:2; stroke-opacity:0.1; fill:none" points="2157,1487.5 2157,48.4375 "/>
<polyline clip-path="url(#clip820)" style="stroke:#000000; stroke-linecap:round; stroke-linejoin:round; stroke-width:4; stroke-opacity:1; fill:none" points="521.835,1487.5 2352.76,1487.5 "/>
<polyline clip-path="url(#clip820)" style="stroke:#000000; stroke-linecap:round; stroke-linejoin:round; stroke-width:4; stroke-opacity:1; fill:none" points="717.594,1487.5 717.594,1471.09 "/>
<polyline clip-path="url(#clip820)" style="stroke:#000000; stroke-linecap:round; stroke-linejoin:round; stroke-width:4; stroke-opacity:1; fill:none" points="1077.44,1487.5 1077.44,1471.09 "/>
<polyline clip-path="url(#clip820)" style="stroke:#000000; stroke-linecap:round; stroke-linejoin:round; stroke-width:4; stroke-opacity:1; fill:none" points="1437.3,1487.5 1437.3,1471.09 "/>
<polyline clip-path="url(#clip820)" style="stroke:#000000; stroke-linecap:round; stroke-linejoin:round; stroke-width:4; stroke-opacity:1; fill:none" points="1797.15,1487.5 1797.15,1471.09 "/>
<polyline clip-path="url(#clip820)" style="stroke:#000000; stroke-linecap:round; stroke-linejoin:round; stroke-width:4; stroke-opacity:1; fill:none" points="2157,1487.5 2157,1471.09 "/>
<path clip-path="url(#clip820)" d="M681.286 1545.96 L697.606 1545.96 L697.606 1549.9 L675.661 1549.9 L675.661 1545.96 Q678.323 1543.21 682.907 1538.58 Q687.513 1533.93 688.694 1532.59 Q690.939 1530.06 691.819 1528.33 Q692.721 1526.57 692.721 1524.88 Q692.721 1522.12 690.777 1520.39 Q688.856 1518.65 685.754 1518.65 Q683.555 1518.65 681.101 1519.41 Q678.67 1520.18 675.893 1521.73 L675.893 1517.01 Q678.717 1515.87 681.17 1515.29 Q683.624 1514.72 685.661 1514.72 Q691.031 1514.72 694.226 1517.4 Q697.42 1520.09 697.42 1524.58 Q697.42 1526.71 696.61 1528.63 Q695.823 1530.53 693.717 1533.12 Q693.138 1533.79 690.036 1537.01 Q686.934 1540.2 681.286 1545.96 Z" fill="#000000" fill-rule="evenodd" fill-opacity="1" /><path clip-path="url(#clip820)" d="M717.42 1518.42 Q713.809 1518.42 711.98 1521.98 Q710.175 1525.53 710.175 1532.65 Q710.175 1539.76 711.98 1543.33 Q713.809 1546.87 717.42 1546.87 Q721.054 1546.87 722.86 1543.33 Q724.689 1539.76 724.689 1532.65 Q724.689 1525.53 722.86 1521.98 Q721.054 1518.42 717.42 1518.42 M717.42 1514.72 Q723.23 1514.72 726.286 1519.32 Q729.365 1523.9 729.365 1532.65 Q729.365 1541.38 726.286 1545.99 Q723.23 1550.57 717.42 1550.57 Q711.61 1550.57 708.531 1545.99 Q705.476 1541.38 705.476 1532.65 Q705.476 1523.9 708.531 1519.32 Q711.61 1514.72 717.42 1514.72 Z" fill="#000000" fill-rule="evenodd" fill-opacity="1" /><path clip-path="url(#clip820)" d="M747.582 1518.42 Q743.971 1518.42 742.142 1521.98 Q740.337 1525.53 740.337 1532.65 Q740.337 1539.76 742.142 1543.33 Q743.971 1546.87 747.582 1546.87 Q751.216 1546.87 753.022 1543.33 Q754.851 1539.76 754.851 1532.65 Q754.851 1525.53 753.022 1521.98 Q751.216 1518.42 747.582 1518.42 M747.582 1514.72 Q753.392 1514.72 756.448 1519.32 Q759.526 1523.9 759.526 1532.65 Q759.526 1541.38 756.448 1545.99 Q753.392 1550.57 747.582 1550.57 Q741.772 1550.57 738.693 1545.99 Q735.638 1541.38 735.638 1532.65 Q735.638 1523.9 738.693 1519.32 Q741.772 1514.72 747.582 1514.72 Z" fill="#000000" fill-rule="evenodd" fill-opacity="1" /><path clip-path="url(#clip820)" d="M1041.14 1545.96 L1057.46 1545.96 L1057.46 1549.9 L1035.51 1549.9 L1035.51 1545.96 Q1038.17 1543.21 1042.76 1538.58 Q1047.36 1533.93 1048.54 1532.59 Q1050.79 1530.06 1051.67 1528.33 Q1052.57 1526.57 1052.57 1524.88 Q1052.57 1522.12 1050.63 1520.39 Q1048.71 1518.65 1045.6 1518.65 Q1043.41 1518.65 1040.95 1519.41 Q1038.52 1520.18 1035.74 1521.73 L1035.74 1517.01 Q1038.57 1515.87 1041.02 1515.29 Q1043.47 1514.72 1045.51 1514.72 Q1050.88 1514.72 1054.08 1517.4 Q1057.27 1520.09 1057.27 1524.58 Q1057.27 1526.71 1056.46 1528.63 Q1055.67 1530.53 1053.57 1533.12 Q1052.99 1533.79 1049.89 1537.01 Q1046.79 1540.2 1041.14 1545.96 Z" fill="#000000" fill-rule="evenodd" fill-opacity="1" /><path clip-path="url(#clip820)" d="M1067.32 1515.34 L1085.67 1515.34 L1085.67 1519.28 L1071.6 1519.28 L1071.6 1527.75 Q1072.62 1527.4 1073.64 1527.24 Q1074.66 1527.05 1075.67 1527.05 Q1081.46 1527.05 1084.84 1530.22 Q1088.22 1533.4 1088.22 1538.81 Q1088.22 1544.39 1084.75 1547.49 Q1081.28 1550.57 1074.96 1550.57 Q1072.78 1550.57 1070.51 1550.2 Q1068.27 1549.83 1065.86 1549.09 L1065.86 1544.39 Q1067.94 1545.53 1070.16 1546.08 Q1072.39 1546.64 1074.86 1546.64 Q1078.87 1546.64 1081.21 1544.53 Q1083.54 1542.42 1083.54 1538.81 Q1083.54 1535.2 1081.21 1533.09 Q1078.87 1530.99 1074.86 1530.99 Q1072.99 1530.99 1071.11 1531.4 Q1069.26 1531.82 1067.32 1532.7 L1067.32 1515.34 Z" fill="#000000" fill-rule="evenodd" fill-opacity="1" /><path clip-path="url(#clip820)" d="M1107.43 1518.42 Q1103.82 1518.42 1101.99 1521.98 Q1100.19 1525.53 1100.19 1532.65 Q1100.19 1539.76 1101.99 1543.33 Q1103.82 1546.87 1107.43 1546.87 Q1111.07 1546.87 1112.87 1543.33 Q1114.7 1539.76 1114.7 1532.65 Q1114.7 1525.53 1112.87 1521.98 Q1111.07 1518.42 1107.43 1518.42 M1107.43 1514.72 Q1113.24 1514.72 1116.3 1519.32 Q1119.38 1523.9 1119.38 1532.65 Q1119.38 1541.38 1116.3 1545.99 Q1113.24 1550.57 1107.43 1550.57 Q1101.62 1550.57 1098.54 1545.99 Q1095.49 1541.38 1095.49 1532.65 Q1095.49 1523.9 1098.54 1519.32 Q1101.62 1514.72 1107.43 1514.72 Z" fill="#000000" fill-rule="evenodd" fill-opacity="1" /><path clip-path="url(#clip820)" d="M1411.06 1531.27 Q1414.41 1531.98 1416.29 1534.25 Q1418.19 1536.52 1418.19 1539.85 Q1418.19 1544.97 1414.67 1547.77 Q1411.15 1550.57 1404.67 1550.57 Q1402.49 1550.57 1400.18 1550.13 Q1397.89 1549.71 1395.43 1548.86 L1395.43 1544.34 Q1397.38 1545.48 1399.69 1546.06 Q1402.01 1546.64 1404.53 1546.64 Q1408.93 1546.64 1411.22 1544.9 Q1413.53 1543.16 1413.53 1539.85 Q1413.53 1536.8 1411.38 1535.09 Q1409.25 1533.35 1405.43 1533.35 L1401.4 1533.35 L1401.4 1529.51 L1405.62 1529.51 Q1409.07 1529.51 1410.9 1528.14 Q1412.72 1526.75 1412.72 1524.16 Q1412.72 1521.5 1410.83 1520.09 Q1408.95 1518.65 1405.43 1518.65 Q1403.51 1518.65 1401.31 1519.07 Q1399.11 1519.48 1396.47 1520.36 L1396.47 1516.2 Q1399.14 1515.46 1401.45 1515.09 Q1403.79 1514.72 1405.85 1514.72 Q1411.17 1514.72 1414.27 1517.15 Q1417.38 1519.55 1417.38 1523.67 Q1417.38 1526.54 1415.73 1528.53 Q1414.09 1530.5 1411.06 1531.27 Z" fill="#000000" fill-rule="evenodd" fill-opacity="1" /><path clip-path="url(#clip820)" d="M1437.05 1518.42 Q1433.44 1518.42 1431.61 1521.98 Q1429.81 1525.53 1429.81 1532.65 Q1429.81 1539.76 1431.61 1543.33 Q1433.44 1546.87 1437.05 1546.87 Q1440.69 1546.87 1442.49 1543.33 Q1444.32 1539.76 1444.32 1532.65 Q1444.32 1525.53 1442.49 1521.98 Q1440.69 1518.42 1437.05 1518.42 M1437.05 1514.72 Q1442.86 1514.72 1445.92 1519.32 Q1449 1523.9 1449 1532.65 Q1449 1541.38 1445.92 1545.99 Q1442.86 1550.57 1437.05 1550.57 Q1431.24 1550.57 1428.16 1545.99 Q1425.11 1541.38 1425.11 1532.65 Q1425.11 1523.9 1428.16 1519.32 Q1431.24 1514.72 1437.05 1514.72 Z" fill="#000000" fill-rule="evenodd" fill-opacity="1" /><path clip-path="url(#clip820)" d="M1467.21 1518.42 Q1463.6 1518.42 1461.77 1521.98 Q1459.97 1525.53 1459.97 1532.65 Q1459.97 1539.76 1461.77 1543.33 Q1463.6 1546.87 1467.21 1546.87 Q1470.85 1546.87 1472.65 1543.33 Q1474.48 1539.76 1474.48 1532.65 Q1474.48 1525.53 1472.65 1521.98 Q1470.85 1518.42 1467.21 1518.42 M1467.21 1514.72 Q1473.02 1514.72 1476.08 1519.32 Q1479.16 1523.9 1479.16 1532.65 Q1479.16 1541.38 1476.08 1545.99 Q1473.02 1550.57 1467.21 1550.57 Q1461.4 1550.57 1458.33 1545.99 Q1455.27 1541.38 1455.27 1532.65 Q1455.27 1523.9 1458.33 1519.32 Q1461.4 1514.72 1467.21 1514.72 Z" fill="#000000" fill-rule="evenodd" fill-opacity="1" /><path clip-path="url(#clip820)" d="M1770.91 1531.27 Q1774.26 1531.98 1776.14 1534.25 Q1778.04 1536.52 1778.04 1539.85 Q1778.04 1544.97 1774.52 1547.77 Q1771 1550.57 1764.52 1550.57 Q1762.34 1550.57 1760.03 1550.13 Q1757.74 1549.71 1755.28 1548.86 L1755.28 1544.34 Q1757.23 1545.48 1759.54 1546.06 Q1761.86 1546.64 1764.38 1546.64 Q1768.78 1546.64 1771.07 1544.9 Q1773.38 1543.16 1773.38 1539.85 Q1773.38 1536.8 1771.23 1535.09 Q1769.1 1533.35 1765.28 1533.35 L1761.26 1533.35 L1761.26 1529.51 L1765.47 1529.51 Q1768.92 1529.51 1770.75 1528.14 Q1772.57 1526.75 1772.57 1524.16 Q1772.57 1521.5 1770.68 1520.09 Q1768.8 1518.65 1765.28 1518.65 Q1763.36 1518.65 1761.16 1519.07 Q1758.96 1519.48 1756.32 1520.36 L1756.32 1516.2 Q1758.99 1515.46 1761.3 1515.09 Q1763.64 1514.72 1765.7 1514.72 Q1771.02 1514.72 1774.13 1517.15 Q1777.23 1519.55 1777.23 1523.67 Q1777.23 1526.54 1775.58 1528.53 Q1773.94 1530.5 1770.91 1531.27 Z" fill="#000000" fill-rule="evenodd" fill-opacity="1" /><path clip-path="url(#clip820)" d="M1786.95 1515.34 L1805.31 1515.34 L1805.31 1519.28 L1791.23 1519.28 L1791.23 1527.75 Q1792.25 1527.4 1793.27 1527.24 Q1794.29 1527.05 1795.31 1527.05 Q1801.09 1527.05 1804.47 1530.22 Q1807.85 1533.4 1807.85 1538.81 Q1807.85 1544.39 1804.38 1547.49 Q1800.91 1550.57 1794.59 1550.57 Q1792.41 1550.57 1790.14 1550.2 Q1787.9 1549.83 1785.49 1549.09 L1785.49 1544.39 Q1787.57 1545.53 1789.8 1546.08 Q1792.02 1546.64 1794.5 1546.64 Q1798.5 1546.64 1800.84 1544.53 Q1803.18 1542.42 1803.18 1538.81 Q1803.18 1535.2 1800.84 1533.09 Q1798.5 1530.99 1794.5 1530.99 Q1792.62 1530.99 1790.75 1531.4 Q1788.89 1531.82 1786.95 1532.7 L1786.95 1515.34 Z" fill="#000000" fill-rule="evenodd" fill-opacity="1" /><path clip-path="url(#clip820)" d="M1827.07 1518.42 Q1823.45 1518.42 1821.63 1521.98 Q1819.82 1525.53 1819.82 1532.65 Q1819.82 1539.76 1821.63 1543.33 Q1823.45 1546.87 1827.07 1546.87 Q1830.7 1546.87 1832.5 1543.33 Q1834.33 1539.76 1834.33 1532.65 Q1834.33 1525.53 1832.5 1521.98 Q1830.7 1518.42 1827.07 1518.42 M1827.07 1514.72 Q1832.88 1514.72 1835.93 1519.32 Q1839.01 1523.9 1839.01 1532.65 Q1839.01 1541.38 1835.93 1545.99 Q1832.88 1550.57 1827.07 1550.57 Q1821.25 1550.57 1818.18 1545.99 Q1815.12 1541.38 1815.12 1532.65 Q1815.12 1523.9 1818.18 1519.32 Q1821.25 1514.72 1827.07 1514.72 Z" fill="#000000" fill-rule="evenodd" fill-opacity="1" /><path clip-path="url(#clip820)" d="M2130.09 1519.41 L2118.28 1537.86 L2130.09 1537.86 L2130.09 1519.41 M2128.86 1515.34 L2134.74 1515.34 L2134.74 1537.86 L2139.67 1537.86 L2139.67 1541.75 L2134.74 1541.75 L2134.74 1549.9 L2130.09 1549.9 L2130.09 1541.75 L2114.49 1541.75 L2114.49 1537.24 L2128.86 1515.34 Z" fill="#000000" fill-rule="evenodd" fill-opacity="1" /><path clip-path="url(#clip820)" d="M2157.4 1518.42 Q2153.79 1518.42 2151.96 1521.98 Q2150.16 1525.53 2150.16 1532.65 Q2150.16 1539.76 2151.96 1543.33 Q2153.79 1546.87 2157.4 1546.87 Q2161.04 1546.87 2162.84 1543.33 Q2164.67 1539.76 2164.67 1532.65 Q2164.67 1525.53 2162.84 1521.98 Q2161.04 1518.42 2157.4 1518.42 M2157.4 1514.72 Q2163.21 1514.72 2166.27 1519.32 Q2169.35 1523.9 2169.35 1532.65 Q2169.35 1541.38 2166.27 1545.99 Q2163.21 1550.57 2157.4 1550.57 Q2151.59 1550.57 2148.51 1545.99 Q2145.46 1541.38 2145.46 1532.65 Q2145.46 1523.9 2148.51 1519.32 Q2151.59 1514.72 2157.4 1514.72 Z" fill="#000000" fill-rule="evenodd" fill-opacity="1" /><path clip-path="url(#clip820)" d="M2187.56 1518.42 Q2183.95 1518.42 2182.12 1521.98 Q2180.32 1525.53 2180.32 1532.65 Q2180.32 1539.76 2182.12 1543.33 Q2183.95 1546.87 2187.56 1546.87 Q2191.2 1546.87 2193 1543.33 Q2194.83 1539.76 2194.83 1532.65 Q2194.83 1525.53 2193 1521.98 Q2191.2 1518.42 2187.56 1518.42 M2187.56 1514.72 Q2193.37 1514.72 2196.43 1519.32 Q2199.51 1523.9 2199.51 1532.65 Q2199.51 1541.38 2196.43 1545.99 Q2193.37 1550.57 2187.56 1550.57 Q2181.75 1550.57 2178.68 1545.99 Q2175.62 1541.38 2175.62 1532.65 Q2175.62 1523.9 2178.68 1519.32 Q2181.75 1514.72 2187.56 1514.72 Z" fill="#000000" fill-rule="evenodd" fill-opacity="1" /><polyline clip-path="url(#clip822)" style="stroke:#000000; stroke-linecap:round; stroke-linejoin:round; stroke-width:2; stroke-opacity:0.1; fill:none" points="521.835,1349.22 2352.76,1349.22 "/>
<polyline clip-path="url(#clip822)" style="stroke:#000000; stroke-linecap:round; stroke-linejoin:round; stroke-width:2; stroke-opacity:0.1; fill:none" points="521.835,1086.72 2352.76,1086.72 "/>
<polyline clip-path="url(#clip822)" style="stroke:#000000; stroke-linecap:round; stroke-linejoin:round; stroke-width:2; stroke-opacity:0.1; fill:none" points="521.835,826.562 2352.76,826.562 "/>
<polyline clip-path="url(#clip822)" style="stroke:#000000; stroke-linecap:round; stroke-linejoin:round; stroke-width:2; stroke-opacity:0.1; fill:none" points="521.835,564.062 2352.76,564.062 "/>
<polyline clip-path="url(#clip822)" style="stroke:#000000; stroke-linecap:round; stroke-linejoin:round; stroke-width:2; stroke-opacity:0.1; fill:none" points="521.835,306.25 2352.76,306.25 "/>
<polyline clip-path="url(#clip820)" style="stroke:#000000; stroke-linecap:round; stroke-linejoin:round; stroke-width:4; stroke-opacity:1; fill:none" points="521.835,1487.5 521.835,48.4375 "/>
<polyline clip-path="url(#clip820)" style="stroke:#000000; stroke-linecap:round; stroke-linejoin:round; stroke-width:4; stroke-opacity:1; fill:none" points="521.835,1349.22 540.733,1349.22 "/>
<polyline clip-path="url(#clip820)" style="stroke:#000000; stroke-linecap:round; stroke-linejoin:round; stroke-width:4; stroke-opacity:1; fill:none" points="521.835,1086.72 540.733,1086.72 "/>
<polyline clip-path="url(#clip820)" style="stroke:#000000; stroke-linecap:round; stroke-linejoin:round; stroke-width:4; stroke-opacity:1; fill:none" points="521.835,826.562 540.733,826.562 "/>
<polyline clip-path="url(#clip820)" style="stroke:#000000; stroke-linecap:round; stroke-linejoin:round; stroke-width:4; stroke-opacity:1; fill:none" points="521.835,564.062 540.733,564.062 "/>
<polyline clip-path="url(#clip820)" style="stroke:#000000; stroke-linecap:round; stroke-linejoin:round; stroke-width:4; stroke-opacity:1; fill:none" points="521.835,306.25 540.733,306.25 "/>
<path clip-path="url(#clip820)" d="M50.9921 1356.12 L80.6679 1356.12 L80.6679 1360.05 L50.9921 1360.05 L50.9921 1356.12 Z" fill="#000000" fill-rule="evenodd" fill-opacity="1" /><path clip-path="url(#clip820)" d="M91.5706 1369.01 L99.2095 1369.01 L99.2095 1342.65 L90.8993 1344.31 L90.8993 1340.05 L99.1632 1338.39 L103.839 1338.39 L103.839 1369.01 L111.478 1369.01 L111.478 1372.95 L91.5706 1372.95 L91.5706 1369.01 Z" fill="#000000" fill-rule="evenodd" fill-opacity="1" /><path clip-path="url(#clip820)" d="M120.922 1367.07 L125.807 1367.07 L125.807 1372.95 L120.922 1372.95 L120.922 1367.07 Z" fill="#000000" fill-rule="evenodd" fill-opacity="1" /><path clip-path="url(#clip820)" d="M136.131 1372.23 L136.131 1367.97 Q137.89 1368.8 139.695 1369.24 Q141.501 1369.68 143.237 1369.68 Q147.867 1369.68 150.297 1366.58 Q152.751 1363.46 153.098 1357.11 Q151.755 1359.1 149.695 1360.17 Q147.635 1361.23 145.135 1361.23 Q139.95 1361.23 136.918 1358.11 Q133.908 1354.96 133.908 1349.52 Q133.908 1344.2 137.056 1340.98 Q140.205 1337.76 145.436 1337.76 Q151.431 1337.76 154.58 1342.37 Q157.751 1346.95 157.751 1355.7 Q157.751 1363.87 153.862 1368.76 Q149.996 1373.62 143.445 1373.62 Q141.686 1373.62 139.881 1373.27 Q138.075 1372.92 136.131 1372.23 M145.436 1357.58 Q148.584 1357.58 150.413 1355.42 Q152.265 1353.27 152.265 1349.52 Q152.265 1345.79 150.413 1343.64 Q148.584 1341.47 145.436 1341.47 Q142.288 1341.47 140.436 1343.64 Q138.607 1345.79 138.607 1349.52 Q138.607 1353.27 140.436 1355.42 Q142.288 1357.58 145.436 1357.58 Z" fill="#000000" fill-rule="evenodd" fill-opacity="1" /><path clip-path="url(#clip820)" d="M166.2 1338.39 L184.556 1338.39 L184.556 1342.32 L170.482 1342.32 L170.482 1350.79 Q171.501 1350.45 172.519 1350.28 Q173.538 1350.1 174.556 1350.1 Q180.343 1350.1 183.723 1353.27 Q187.103 1356.44 187.103 1361.86 Q187.103 1367.44 183.63 1370.54 Q180.158 1373.62 173.839 1373.62 Q171.663 1373.62 169.394 1373.25 Q167.149 1372.88 164.742 1372.14 L164.742 1367.44 Q166.825 1368.57 169.047 1369.13 Q171.269 1369.68 173.746 1369.68 Q177.751 1369.68 180.089 1367.58 Q182.427 1365.47 182.427 1361.86 Q182.427 1358.25 180.089 1356.14 Q177.751 1354.03 173.746 1354.03 Q171.871 1354.03 169.996 1354.45 Q168.144 1354.87 166.2 1355.75 L166.2 1338.39 Z" fill="#000000" fill-rule="evenodd" fill-opacity="1" /><path clip-path="url(#clip820)" d="M200.343 1369.01 L216.663 1369.01 L216.663 1372.95 L194.718 1372.95 L194.718 1369.01 Q197.38 1366.26 201.964 1361.63 Q206.57 1356.97 207.751 1355.63 Q209.996 1353.11 210.876 1351.37 Q211.778 1349.61 211.778 1347.92 Q211.778 1345.17 209.834 1343.43 Q207.913 1341.7 204.811 1341.7 Q202.612 1341.7 200.158 1342.46 Q197.727 1343.22 194.95 1344.78 L194.95 1340.05 Q197.774 1338.92 200.227 1338.34 Q202.681 1337.76 204.718 1337.76 Q210.088 1337.76 213.283 1340.45 Q216.477 1343.13 216.477 1347.62 Q216.477 1349.75 215.667 1351.67 Q214.88 1353.57 212.774 1356.16 Q212.195 1356.84 209.093 1360.05 Q205.991 1363.25 200.343 1369.01 Z" fill="#000000" fill-rule="evenodd" fill-opacity="1" /><path clip-path="url(#clip820)" d="M236.477 1341.47 Q232.866 1341.47 231.037 1345.03 Q229.232 1348.57 229.232 1355.7 Q229.232 1362.81 231.037 1366.37 Q232.866 1369.91 236.477 1369.91 Q240.111 1369.91 241.917 1366.37 Q243.746 1362.81 243.746 1355.7 Q243.746 1348.57 241.917 1345.03 Q240.111 1341.47 236.477 1341.47 M236.477 1337.76 Q242.287 1337.76 245.343 1342.37 Q248.422 1346.95 248.422 1355.7 Q248.422 1364.43 245.343 1369.03 Q242.287 1373.62 236.477 1373.62 Q230.667 1373.62 227.588 1369.03 Q224.533 1364.43 224.533 1355.7 Q224.533 1346.95 227.588 1342.37 Q230.667 1337.76 236.477 1337.76 Z" fill="#000000" fill-rule="evenodd" fill-opacity="1" /><path clip-path="url(#clip820)" d="M269.486 1342.46 L257.681 1360.91 L269.486 1360.91 L269.486 1342.46 M268.259 1338.39 L274.139 1338.39 L274.139 1360.91 L279.07 1360.91 L279.07 1364.8 L274.139 1364.8 L274.139 1372.95 L269.486 1372.95 L269.486 1364.8 L253.885 1364.8 L253.885 1360.28 L268.259 1338.39 Z" fill="#000000" fill-rule="evenodd" fill-opacity="1" /><path clip-path="url(#clip820)" d="M286.94 1372.23 L286.94 1367.97 Q288.699 1368.8 290.505 1369.24 Q292.31 1369.68 294.046 1369.68 Q298.676 1369.68 301.107 1366.58 Q303.56 1363.46 303.907 1357.11 Q302.565 1359.1 300.505 1360.17 Q298.445 1361.23 295.945 1361.23 Q290.759 1361.23 287.727 1358.11 Q284.718 1354.96 284.718 1349.52 Q284.718 1344.2 287.866 1340.98 Q291.014 1337.76 296.245 1337.76 Q302.241 1337.76 305.389 1342.37 Q308.56 1346.95 308.56 1355.7 Q308.56 1363.87 304.671 1368.76 Q300.806 1373.62 294.255 1373.62 Q292.495 1373.62 290.69 1373.27 Q288.884 1372.92 286.94 1372.23 M296.245 1357.58 Q299.394 1357.58 301.222 1355.42 Q303.074 1353.27 303.074 1349.52 Q303.074 1345.79 301.222 1343.64 Q299.394 1341.47 296.245 1341.47 Q293.097 1341.47 291.245 1343.64 Q289.417 1345.79 289.417 1349.52 Q289.417 1353.27 291.245 1355.42 Q293.097 1357.58 296.245 1357.58 Z" fill="#000000" fill-rule="evenodd" fill-opacity="1" /><path clip-path="url(#clip820)" d="M331.13 1354.31 Q334.486 1355.03 336.361 1357.3 Q338.259 1359.57 338.259 1362.9 Q338.259 1368.02 334.741 1370.82 Q331.222 1373.62 324.741 1373.62 Q322.565 1373.62 320.25 1373.18 Q317.958 1372.76 315.505 1371.9 L315.505 1367.39 Q317.449 1368.53 319.764 1369.1 Q322.079 1369.68 324.602 1369.68 Q329 1369.68 331.292 1367.95 Q333.606 1366.21 333.606 1362.9 Q333.606 1359.84 331.454 1358.13 Q329.324 1356.4 325.505 1356.4 L321.477 1356.4 L321.477 1352.55 L325.69 1352.55 Q329.139 1352.55 330.967 1351.19 Q332.796 1349.8 332.796 1347.21 Q332.796 1344.54 330.898 1343.13 Q329.023 1341.7 325.505 1341.7 Q323.583 1341.7 321.384 1342.11 Q319.185 1342.53 316.546 1343.41 L316.546 1339.24 Q319.208 1338.5 321.523 1338.13 Q323.861 1337.76 325.921 1337.76 Q331.245 1337.76 334.347 1340.19 Q337.449 1342.6 337.449 1346.72 Q337.449 1349.59 335.805 1351.58 Q334.162 1353.55 331.13 1354.31 Z" fill="#000000" fill-rule="evenodd" fill-opacity="1" /><path clip-path="url(#clip820)" d="M347.264 1372.23 L347.264 1367.97 Q349.023 1368.8 350.828 1369.24 Q352.634 1369.68 354.37 1369.68 Q359 1369.68 361.43 1366.58 Q363.884 1363.46 364.231 1357.11 Q362.889 1359.1 360.828 1360.17 Q358.768 1361.23 356.268 1361.23 Q351.083 1361.23 348.051 1358.11 Q345.041 1354.96 345.041 1349.52 Q345.041 1344.2 348.19 1340.98 Q351.338 1337.76 356.569 1337.76 Q362.565 1337.76 365.713 1342.37 Q368.884 1346.95 368.884 1355.7 Q368.884 1363.87 364.995 1368.76 Q361.129 1373.62 354.578 1373.62 Q352.819 1373.62 351.014 1373.27 Q349.208 1372.92 347.264 1372.23 M356.569 1357.58 Q359.717 1357.58 361.546 1355.42 Q363.398 1353.27 363.398 1349.52 Q363.398 1345.79 361.546 1343.64 Q359.717 1341.47 356.569 1341.47 Q353.421 1341.47 351.569 1343.64 Q349.741 1345.79 349.741 1349.52 Q349.741 1353.27 351.569 1355.42 Q353.421 1357.58 356.569 1357.58 Z" fill="#000000" fill-rule="evenodd" fill-opacity="1" /><path clip-path="url(#clip820)" d="M405.458 1347.48 L394.879 1358.11 L405.458 1368.69 L402.703 1371.49 L392.078 1360.86 L381.453 1371.49 L378.722 1368.69 L389.277 1358.11 L378.722 1347.48 L381.453 1344.68 L392.078 1355.31 L402.703 1344.68 L405.458 1347.48 Z" fill="#000000" fill-rule="evenodd" fill-opacity="1" /><path clip-path="url(#clip820)" d="M417.819 1369.01 L425.458 1369.01 L425.458 1342.65 L417.148 1344.31 L417.148 1340.05 L425.411 1338.39 L430.087 1338.39 L430.087 1369.01 L437.726 1369.01 L437.726 1372.95 L417.819 1372.95 L417.819 1369.01 Z" fill="#000000" fill-rule="evenodd" fill-opacity="1" /><path clip-path="url(#clip820)" d="M457.171 1341.47 Q453.559 1341.47 451.731 1345.03 Q449.925 1348.57 449.925 1355.7 Q449.925 1362.81 451.731 1366.37 Q453.559 1369.91 457.171 1369.91 Q460.805 1369.91 462.61 1366.37 Q464.439 1362.81 464.439 1355.7 Q464.439 1348.57 462.61 1345.03 Q460.805 1341.47 457.171 1341.47 M457.171 1337.76 Q462.981 1337.76 466.036 1342.37 Q469.115 1346.95 469.115 1355.7 Q469.115 1364.43 466.036 1369.03 Q462.981 1373.62 457.171 1373.62 Q451.36 1373.62 448.282 1369.03 Q445.226 1364.43 445.226 1355.7 Q445.226 1346.95 448.282 1342.37 Q451.36 1337.76 457.171 1337.76 Z" fill="#000000" fill-rule="evenodd" fill-opacity="1" /><path clip-path="url(#clip820)" d="M469.66 1342.34 L475.867 1342.34 L475.867 1320.92 L469.115 1322.27 L469.115 1318.81 L475.829 1317.46 L479.628 1317.46 L479.628 1342.34 L485.835 1342.34 L485.835 1345.54 L469.66 1345.54 L469.66 1342.34 Z" fill="#000000" fill-rule="evenodd" fill-opacity="1" /><path clip-path="url(#clip820)" d="M50.9921 1093.62 L80.6679 1093.62 L80.6679 1097.55 L50.9921 1097.55 L50.9921 1093.62 Z" fill="#000000" fill-rule="evenodd" fill-opacity="1" /><path clip-path="url(#clip820)" d="M91.5706 1106.51 L99.2095 1106.51 L99.2095 1080.15 L90.8993 1081.81 L90.8993 1077.55 L99.1632 1075.89 L103.839 1075.89 L103.839 1106.51 L111.478 1106.51 L111.478 1110.45 L91.5706 1110.45 L91.5706 1106.51 Z" fill="#000000" fill-rule="evenodd" fill-opacity="1" /><path clip-path="url(#clip820)" d="M120.922 1104.57 L125.807 1104.57 L125.807 1110.45 L120.922 1110.45 L120.922 1104.57 Z" fill="#000000" fill-rule="evenodd" fill-opacity="1" /><path clip-path="url(#clip820)" d="M136.131 1109.73 L136.131 1105.47 Q137.89 1106.3 139.695 1106.74 Q141.501 1107.18 143.237 1107.18 Q147.867 1107.18 150.297 1104.08 Q152.751 1100.96 153.098 1094.61 Q151.755 1096.6 149.695 1097.67 Q147.635 1098.73 145.135 1098.73 Q139.95 1098.73 136.918 1095.61 Q133.908 1092.46 133.908 1087.02 Q133.908 1081.7 137.056 1078.48 Q140.205 1075.26 145.436 1075.26 Q151.431 1075.26 154.58 1079.87 Q157.751 1084.45 157.751 1093.2 Q157.751 1101.37 153.862 1106.26 Q149.996 1111.12 143.445 1111.12 Q141.686 1111.12 139.881 1110.77 Q138.075 1110.42 136.131 1109.73 M145.436 1095.08 Q148.584 1095.08 150.413 1092.92 Q152.265 1090.77 152.265 1087.02 Q152.265 1083.29 150.413 1081.14 Q148.584 1078.97 145.436 1078.97 Q142.288 1078.97 140.436 1081.14 Q138.607 1083.29 138.607 1087.02 Q138.607 1090.77 140.436 1092.92 Q142.288 1095.08 145.436 1095.08 Z" fill="#000000" fill-rule="evenodd" fill-opacity="1" /><path clip-path="url(#clip820)" d="M166.2 1075.89 L184.556 1075.89 L184.556 1079.82 L170.482 1079.82 L170.482 1088.29 Q171.501 1087.95 172.519 1087.78 Q173.538 1087.6 174.556 1087.6 Q180.343 1087.6 183.723 1090.77 Q187.103 1093.94 187.103 1099.36 Q187.103 1104.94 183.63 1108.04 Q180.158 1111.12 173.839 1111.12 Q171.663 1111.12 169.394 1110.75 Q167.149 1110.38 164.742 1109.64 L164.742 1104.94 Q166.825 1106.07 169.047 1106.63 Q171.269 1107.18 173.746 1107.18 Q177.751 1107.18 180.089 1105.08 Q182.427 1102.97 182.427 1099.36 Q182.427 1095.75 180.089 1093.64 Q177.751 1091.53 173.746 1091.53 Q171.871 1091.53 169.996 1091.95 Q168.144 1092.37 166.2 1093.25 L166.2 1075.89 Z" fill="#000000" fill-rule="evenodd" fill-opacity="1" /><path clip-path="url(#clip820)" d="M200.343 1106.51 L216.663 1106.51 L216.663 1110.45 L194.718 1110.45 L194.718 1106.51 Q197.38 1103.76 201.964 1099.13 Q206.57 1094.47 207.751 1093.13 Q209.996 1090.61 210.876 1088.87 Q211.778 1087.11 211.778 1085.42 Q211.778 1082.67 209.834 1080.93 Q207.913 1079.2 204.811 1079.2 Q202.612 1079.2 200.158 1079.96 Q197.727 1080.72 194.95 1082.28 L194.95 1077.55 Q197.774 1076.42 200.227 1075.84 Q202.681 1075.26 204.718 1075.26 Q210.088 1075.26 213.283 1077.95 Q216.477 1080.63 216.477 1085.12 Q216.477 1087.25 215.667 1089.17 Q214.88 1091.07 212.774 1093.66 Q212.195 1094.34 209.093 1097.55 Q205.991 1100.75 200.343 1106.51 Z" fill="#000000" fill-rule="evenodd" fill-opacity="1" /><path clip-path="url(#clip820)" d="M236.477 1078.97 Q232.866 1078.97 231.037 1082.53 Q229.232 1086.07 229.232 1093.2 Q229.232 1100.31 231.037 1103.87 Q232.866 1107.41 236.477 1107.41 Q240.111 1107.41 241.917 1103.87 Q243.746 1100.31 243.746 1093.2 Q243.746 1086.07 241.917 1082.53 Q240.111 1078.97 236.477 1078.97 M236.477 1075.26 Q242.287 1075.26 245.343 1079.87 Q248.422 1084.45 248.422 1093.2 Q248.422 1101.93 245.343 1106.53 Q242.287 1111.12 236.477 1111.12 Q230.667 1111.12 227.588 1106.53 Q224.533 1101.93 224.533 1093.2 Q224.533 1084.45 227.588 1079.87 Q230.667 1075.26 236.477 1075.26 Z" fill="#000000" fill-rule="evenodd" fill-opacity="1" /><path clip-path="url(#clip820)" d="M269.486 1079.96 L257.681 1098.41 L269.486 1098.41 L269.486 1079.96 M268.259 1075.89 L274.139 1075.89 L274.139 1098.41 L279.07 1098.41 L279.07 1102.3 L274.139 1102.3 L274.139 1110.45 L269.486 1110.45 L269.486 1102.3 L253.885 1102.3 L253.885 1097.78 L268.259 1075.89 Z" fill="#000000" fill-rule="evenodd" fill-opacity="1" /><path clip-path="url(#clip820)" d="M286.94 1109.73 L286.94 1105.47 Q288.699 1106.3 290.505 1106.74 Q292.31 1107.18 294.046 1107.18 Q298.676 1107.18 301.107 1104.08 Q303.56 1100.96 303.907 1094.61 Q302.565 1096.6 300.505 1097.67 Q298.445 1098.73 295.945 1098.73 Q290.759 1098.73 287.727 1095.61 Q284.718 1092.46 284.718 1087.02 Q284.718 1081.7 287.866 1078.48 Q291.014 1075.26 296.245 1075.26 Q302.241 1075.26 305.389 1079.87 Q308.56 1084.45 308.56 1093.2 Q308.56 1101.37 304.671 1106.26 Q300.806 1111.12 294.255 1111.12 Q292.495 1111.12 290.69 1110.77 Q288.884 1110.42 286.94 1109.73 M296.245 1095.08 Q299.394 1095.08 301.222 1092.92 Q303.074 1090.77 303.074 1087.02 Q303.074 1083.29 301.222 1081.14 Q299.394 1078.97 296.245 1078.97 Q293.097 1078.97 291.245 1081.14 Q289.417 1083.29 289.417 1087.02 Q289.417 1090.77 291.245 1092.92 Q293.097 1095.08 296.245 1095.08 Z" fill="#000000" fill-rule="evenodd" fill-opacity="1" /><path clip-path="url(#clip820)" d="M331.13 1091.81 Q334.486 1092.53 336.361 1094.8 Q338.259 1097.07 338.259 1100.4 Q338.259 1105.52 334.741 1108.32 Q331.222 1111.12 324.741 1111.12 Q322.565 1111.12 320.25 1110.68 Q317.958 1110.26 315.505 1109.4 L315.505 1104.89 Q317.449 1106.03 319.764 1106.6 Q322.079 1107.18 324.602 1107.18 Q329 1107.18 331.292 1105.45 Q333.606 1103.71 333.606 1100.4 Q333.606 1097.34 331.454 1095.63 Q329.324 1093.9 325.505 1093.9 L321.477 1093.9 L321.477 1090.05 L325.69 1090.05 Q329.139 1090.05 330.967 1088.69 Q332.796 1087.3 332.796 1084.71 Q332.796 1082.04 330.898 1080.63 Q329.023 1079.2 325.505 1079.2 Q323.583 1079.2 321.384 1079.61 Q319.185 1080.03 316.546 1080.91 L316.546 1076.74 Q319.208 1076 321.523 1075.63 Q323.861 1075.26 325.921 1075.26 Q331.245 1075.26 334.347 1077.69 Q337.449 1080.1 337.449 1084.22 Q337.449 1087.09 335.805 1089.08 Q334.162 1091.05 331.13 1091.81 Z" fill="#000000" fill-rule="evenodd" fill-opacity="1" /><path clip-path="url(#clip820)" d="M347.264 1109.73 L347.264 1105.47 Q349.023 1106.3 350.828 1106.74 Q352.634 1107.18 354.37 1107.18 Q359 1107.18 361.43 1104.08 Q363.884 1100.96 364.231 1094.61 Q362.889 1096.6 360.828 1097.67 Q358.768 1098.73 356.268 1098.73 Q351.083 1098.73 348.051 1095.61 Q345.041 1092.46 345.041 1087.02 Q345.041 1081.7 348.19 1078.48 Q351.338 1075.26 356.569 1075.26 Q362.565 1075.26 365.713 1079.87 Q368.884 1084.45 368.884 1093.2 Q368.884 1101.37 364.995 1106.26 Q361.129 1111.12 354.578 1111.12 Q352.819 1111.12 351.014 1110.77 Q349.208 1110.42 347.264 1109.73 M356.569 1095.08 Q359.717 1095.08 361.546 1092.92 Q363.398 1090.77 363.398 1087.02 Q363.398 1083.29 361.546 1081.14 Q359.717 1078.97 356.569 1078.97 Q353.421 1078.97 351.569 1081.14 Q349.741 1083.29 349.741 1087.02 Q349.741 1090.77 351.569 1092.92 Q353.421 1095.08 356.569 1095.08 Z" fill="#000000" fill-rule="evenodd" fill-opacity="1" /><path clip-path="url(#clip820)" d="M405.458 1084.98 L394.879 1095.61 L405.458 1106.19 L402.703 1108.99 L392.078 1098.36 L381.453 1108.99 L378.722 1106.19 L389.277 1095.61 L378.722 1084.98 L381.453 1082.18 L392.078 1092.81 L402.703 1082.18 L405.458 1084.98 Z" fill="#000000" fill-rule="evenodd" fill-opacity="1" /><path clip-path="url(#clip820)" d="M417.819 1106.51 L425.458 1106.51 L425.458 1080.15 L417.148 1081.81 L417.148 1077.55 L425.411 1075.89 L430.087 1075.89 L430.087 1106.51 L437.726 1106.51 L437.726 1110.45 L417.819 1110.45 L417.819 1106.51 Z" fill="#000000" fill-rule="evenodd" fill-opacity="1" /><path clip-path="url(#clip820)" d="M457.171 1078.97 Q453.559 1078.97 451.731 1082.53 Q449.925 1086.07 449.925 1093.2 Q449.925 1100.31 451.731 1103.87 Q453.559 1107.41 457.171 1107.41 Q460.805 1107.41 462.61 1103.87 Q464.439 1100.31 464.439 1093.2 Q464.439 1086.07 462.61 1082.53 Q460.805 1078.97 457.171 1078.97 M457.171 1075.26 Q462.981 1075.26 466.036 1079.87 Q469.115 1084.45 469.115 1093.2 Q469.115 1101.93 466.036 1106.53 Q462.981 1111.12 457.171 1111.12 Q451.36 1111.12 448.282 1106.53 Q445.226 1101.93 445.226 1093.2 Q445.226 1084.45 448.282 1079.87 Q451.36 1075.26 457.171 1075.26 Z" fill="#000000" fill-rule="evenodd" fill-opacity="1" /><path clip-path="url(#clip820)" d="M469.66 1079.84 L475.867 1079.84 L475.867 1058.42 L469.115 1059.77 L469.115 1056.31 L475.829 1054.96 L479.628 1054.96 L479.628 1079.84 L485.835 1079.84 L485.835 1083.04 L469.66 1083.04 L469.66 1079.84 Z" fill="#000000" fill-rule="evenodd" fill-opacity="1" /><path clip-path="url(#clip820)" d="M50.9921 833.461 L80.6679 833.461 L80.6679 837.397 L50.9921 837.397 L50.9921 833.461 Z" fill="#000000" fill-rule="evenodd" fill-opacity="1" /><path clip-path="url(#clip820)" d="M91.5706 846.355 L99.2095 846.355 L99.2095 819.989 L90.8993 821.656 L90.8993 817.397 L99.1632 815.73 L103.839 815.73 L103.839 846.355 L111.478 846.355 L111.478 850.29 L91.5706 850.29 L91.5706 846.355 Z" fill="#000000" fill-rule="evenodd" fill-opacity="1" /><path clip-path="url(#clip820)" d="M120.922 844.411 L125.807 844.411 L125.807 850.29 L120.922 850.29 L120.922 844.411 Z" fill="#000000" fill-rule="evenodd" fill-opacity="1" /><path clip-path="url(#clip820)" d="M136.131 849.573 L136.131 845.313 Q137.89 846.147 139.695 846.586 Q141.501 847.026 143.237 847.026 Q147.867 847.026 150.297 843.924 Q152.751 840.799 153.098 834.457 Q151.755 836.448 149.695 837.512 Q147.635 838.577 145.135 838.577 Q139.95 838.577 136.918 835.452 Q133.908 832.304 133.908 826.864 Q133.908 821.54 137.056 818.323 Q140.205 815.105 145.436 815.105 Q151.431 815.105 154.58 819.712 Q157.751 824.295 157.751 833.045 Q157.751 841.216 153.862 846.1 Q149.996 850.961 143.445 850.961 Q141.686 850.961 139.881 850.614 Q138.075 850.267 136.131 849.573 M145.436 834.92 Q148.584 834.92 150.413 832.767 Q152.265 830.614 152.265 826.864 Q152.265 823.137 150.413 820.985 Q148.584 818.809 145.436 818.809 Q142.288 818.809 140.436 820.985 Q138.607 823.137 138.607 826.864 Q138.607 830.614 140.436 832.767 Q142.288 834.92 145.436 834.92 Z" fill="#000000" fill-rule="evenodd" fill-opacity="1" /><path clip-path="url(#clip820)" d="M166.2 815.73 L184.556 815.73 L184.556 819.665 L170.482 819.665 L170.482 828.137 Q171.501 827.79 172.519 827.628 Q173.538 827.443 174.556 827.443 Q180.343 827.443 183.723 830.614 Q187.103 833.786 187.103 839.202 Q187.103 844.781 183.63 847.883 Q180.158 850.961 173.839 850.961 Q171.663 850.961 169.394 850.591 Q167.149 850.221 164.742 849.48 L164.742 844.781 Q166.825 845.915 169.047 846.471 Q171.269 847.026 173.746 847.026 Q177.751 847.026 180.089 844.92 Q182.427 842.813 182.427 839.202 Q182.427 835.591 180.089 833.485 Q177.751 831.378 173.746 831.378 Q171.871 831.378 169.996 831.795 Q168.144 832.211 166.2 833.091 L166.2 815.73 Z" fill="#000000" fill-rule="evenodd" fill-opacity="1" /><path clip-path="url(#clip820)" d="M200.343 846.355 L216.663 846.355 L216.663 850.29 L194.718 850.29 L194.718 846.355 Q197.38 843.6 201.964 838.971 Q206.57 834.318 207.751 832.975 Q209.996 830.452 210.876 828.716 Q211.778 826.957 211.778 825.267 Q211.778 822.512 209.834 820.776 Q207.913 819.04 204.811 819.04 Q202.612 819.04 200.158 819.804 Q197.727 820.568 194.95 822.119 L194.95 817.397 Q197.774 816.263 200.227 815.684 Q202.681 815.105 204.718 815.105 Q210.088 815.105 213.283 817.79 Q216.477 820.475 216.477 824.966 Q216.477 827.096 215.667 829.017 Q214.88 830.915 212.774 833.508 Q212.195 834.179 209.093 837.397 Q205.991 840.591 200.343 846.355 Z" fill="#000000" fill-rule="evenodd" fill-opacity="1" /><path clip-path="url(#clip820)" d="M236.477 818.809 Q232.866 818.809 231.037 822.374 Q229.232 825.915 229.232 833.045 Q229.232 840.151 231.037 843.716 Q232.866 847.258 236.477 847.258 Q240.111 847.258 241.917 843.716 Q243.746 840.151 243.746 833.045 Q243.746 825.915 241.917 822.374 Q240.111 818.809 236.477 818.809 M236.477 815.105 Q242.287 815.105 245.343 819.712 Q248.422 824.295 248.422 833.045 Q248.422 841.772 245.343 846.378 Q242.287 850.961 236.477 850.961 Q230.667 850.961 227.588 846.378 Q224.533 841.772 224.533 833.045 Q224.533 824.295 227.588 819.712 Q230.667 815.105 236.477 815.105 Z" fill="#000000" fill-rule="evenodd" fill-opacity="1" /><path clip-path="url(#clip820)" d="M269.486 819.804 L257.681 838.253 L269.486 838.253 L269.486 819.804 M268.259 815.73 L274.139 815.73 L274.139 838.253 L279.07 838.253 L279.07 842.142 L274.139 842.142 L274.139 850.29 L269.486 850.29 L269.486 842.142 L253.885 842.142 L253.885 837.628 L268.259 815.73 Z" fill="#000000" fill-rule="evenodd" fill-opacity="1" /><path clip-path="url(#clip820)" d="M286.94 849.573 L286.94 845.313 Q288.699 846.147 290.505 846.586 Q292.31 847.026 294.046 847.026 Q298.676 847.026 301.107 843.924 Q303.56 840.799 303.907 834.457 Q302.565 836.448 300.505 837.512 Q298.445 838.577 295.945 838.577 Q290.759 838.577 287.727 835.452 Q284.718 832.304 284.718 826.864 Q284.718 821.54 287.866 818.323 Q291.014 815.105 296.245 815.105 Q302.241 815.105 305.389 819.712 Q308.56 824.295 308.56 833.045 Q308.56 841.216 304.671 846.1 Q300.806 850.961 294.255 850.961 Q292.495 850.961 290.69 850.614 Q288.884 850.267 286.94 849.573 M296.245 834.92 Q299.394 834.92 301.222 832.767 Q303.074 830.614 303.074 826.864 Q303.074 823.137 301.222 820.985 Q299.394 818.809 296.245 818.809 Q293.097 818.809 291.245 820.985 Q289.417 823.137 289.417 826.864 Q289.417 830.614 291.245 832.767 Q293.097 834.92 296.245 834.92 Z" fill="#000000" fill-rule="evenodd" fill-opacity="1" /><path clip-path="url(#clip820)" d="M331.13 831.656 Q334.486 832.374 336.361 834.642 Q338.259 836.911 338.259 840.244 Q338.259 845.36 334.741 848.16 Q331.222 850.961 324.741 850.961 Q322.565 850.961 320.25 850.522 Q317.958 850.105 315.505 849.248 L315.505 844.735 Q317.449 845.869 319.764 846.448 Q322.079 847.026 324.602 847.026 Q329 847.026 331.292 845.29 Q333.606 843.554 333.606 840.244 Q333.606 837.188 331.454 835.475 Q329.324 833.739 325.505 833.739 L321.477 833.739 L321.477 829.897 L325.69 829.897 Q329.139 829.897 330.967 828.531 Q332.796 827.142 332.796 824.549 Q332.796 821.887 330.898 820.475 Q329.023 819.04 325.505 819.04 Q323.583 819.04 321.384 819.457 Q319.185 819.874 316.546 820.753 L316.546 816.587 Q319.208 815.846 321.523 815.475 Q323.861 815.105 325.921 815.105 Q331.245 815.105 334.347 817.536 Q337.449 819.943 337.449 824.063 Q337.449 826.934 335.805 828.924 Q334.162 830.892 331.13 831.656 Z" fill="#000000" fill-rule="evenodd" fill-opacity="1" /><path clip-path="url(#clip820)" d="M347.264 849.573 L347.264 845.313 Q349.023 846.147 350.828 846.586 Q352.634 847.026 354.37 847.026 Q359 847.026 361.43 843.924 Q363.884 840.799 364.231 834.457 Q362.889 836.448 360.828 837.512 Q358.768 838.577 356.268 838.577 Q351.083 838.577 348.051 835.452 Q345.041 832.304 345.041 826.864 Q345.041 821.54 348.19 818.323 Q351.338 815.105 356.569 815.105 Q362.565 815.105 365.713 819.712 Q368.884 824.295 368.884 833.045 Q368.884 841.216 364.995 846.1 Q361.129 850.961 354.578 850.961 Q352.819 850.961 351.014 850.614 Q349.208 850.267 347.264 849.573 M356.569 834.92 Q359.717 834.92 361.546 832.767 Q363.398 830.614 363.398 826.864 Q363.398 823.137 361.546 820.985 Q359.717 818.809 356.569 818.809 Q353.421 818.809 351.569 820.985 Q349.741 823.137 349.741 826.864 Q349.741 830.614 351.569 832.767 Q353.421 834.92 356.569 834.92 Z" fill="#000000" fill-rule="evenodd" fill-opacity="1" /><path clip-path="url(#clip820)" d="M405.458 824.827 L394.879 835.452 L405.458 846.031 L402.703 848.832 L392.078 838.207 L381.453 848.832 L378.722 846.031 L389.277 835.452 L378.722 824.827 L381.453 822.026 L392.078 832.651 L402.703 822.026 L405.458 824.827 Z" fill="#000000" fill-rule="evenodd" fill-opacity="1" /><path clip-path="url(#clip820)" d="M417.819 846.355 L425.458 846.355 L425.458 819.989 L417.148 821.656 L417.148 817.397 L425.411 815.73 L430.087 815.73 L430.087 846.355 L437.726 846.355 L437.726 850.29 L417.819 850.29 L417.819 846.355 Z" fill="#000000" fill-rule="evenodd" fill-opacity="1" /><path clip-path="url(#clip820)" d="M457.171 818.809 Q453.559 818.809 451.731 822.374 Q449.925 825.915 449.925 833.045 Q449.925 840.151 451.731 843.716 Q453.559 847.258 457.171 847.258 Q460.805 847.258 462.61 843.716 Q464.439 840.151 464.439 833.045 Q464.439 825.915 462.61 822.374 Q460.805 818.809 457.171 818.809 M457.171 815.105 Q462.981 815.105 466.036 819.712 Q469.115 824.295 469.115 833.045 Q469.115 841.772 466.036 846.378 Q462.981 850.961 457.171 850.961 Q451.36 850.961 448.282 846.378 Q445.226 841.772 445.226 833.045 Q445.226 824.295 448.282 819.712 Q451.36 815.105 457.171 815.105 Z" fill="#000000" fill-rule="evenodd" fill-opacity="1" /><path clip-path="url(#clip820)" d="M469.66 819.682 L475.867 819.682 L475.867 798.26 L469.115 799.614 L469.115 796.154 L475.829 794.8 L479.628 794.8 L479.628 819.682 L485.835 819.682 L485.835 822.88 L469.66 822.88 L469.66 819.682 Z" fill="#000000" fill-rule="evenodd" fill-opacity="1" /><path clip-path="url(#clip820)" d="M50.9921 570.961 L80.6679 570.961 L80.6679 574.897 L50.9921 574.897 L50.9921 570.961 Z" fill="#000000" fill-rule="evenodd" fill-opacity="1" /><path clip-path="url(#clip820)" d="M91.5706 583.855 L99.2095 583.855 L99.2095 557.489 L90.8993 559.156 L90.8993 554.897 L99.1632 553.23 L103.839 553.23 L103.839 583.855 L111.478 583.855 L111.478 587.79 L91.5706 587.79 L91.5706 583.855 Z" fill="#000000" fill-rule="evenodd" fill-opacity="1" /><path clip-path="url(#clip820)" d="M120.922 581.911 L125.807 581.911 L125.807 587.79 L120.922 587.79 L120.922 581.911 Z" fill="#000000" fill-rule="evenodd" fill-opacity="1" /><path clip-path="url(#clip820)" d="M136.131 587.073 L136.131 582.813 Q137.89 583.647 139.695 584.086 Q141.501 584.526 143.237 584.526 Q147.867 584.526 150.297 581.424 Q152.751 578.299 153.098 571.957 Q151.755 573.948 149.695 575.012 Q147.635 576.077 145.135 576.077 Q139.95 576.077 136.918 572.952 Q133.908 569.804 133.908 564.364 Q133.908 559.04 137.056 555.823 Q140.205 552.605 145.436 552.605 Q151.431 552.605 154.58 557.212 Q157.751 561.795 157.751 570.545 Q157.751 578.716 153.862 583.6 Q149.996 588.461 143.445 588.461 Q141.686 588.461 139.881 588.114 Q138.075 587.767 136.131 587.073 M145.436 572.42 Q148.584 572.42 150.413 570.267 Q152.265 568.114 152.265 564.364 Q152.265 560.637 150.413 558.485 Q148.584 556.309 145.436 556.309 Q142.288 556.309 140.436 558.485 Q138.607 560.637 138.607 564.364 Q138.607 568.114 140.436 570.267 Q142.288 572.42 145.436 572.42 Z" fill="#000000" fill-rule="evenodd" fill-opacity="1" /><path clip-path="url(#clip820)" d="M166.2 553.23 L184.556 553.23 L184.556 557.165 L170.482 557.165 L170.482 565.637 Q171.501 565.29 172.519 565.128 Q173.538 564.943 174.556 564.943 Q180.343 564.943 183.723 568.114 Q187.103 571.286 187.103 576.702 Q187.103 582.281 183.63 585.383 Q180.158 588.461 173.839 588.461 Q171.663 588.461 169.394 588.091 Q167.149 587.721 164.742 586.98 L164.742 582.281 Q166.825 583.415 169.047 583.971 Q171.269 584.526 173.746 584.526 Q177.751 584.526 180.089 582.42 Q182.427 580.313 182.427 576.702 Q182.427 573.091 180.089 570.985 Q177.751 568.878 173.746 568.878 Q171.871 568.878 169.996 569.295 Q168.144 569.711 166.2 570.591 L166.2 553.23 Z" fill="#000000" fill-rule="evenodd" fill-opacity="1" /><path clip-path="url(#clip820)" d="M200.343 583.855 L216.663 583.855 L216.663 587.79 L194.718 587.79 L194.718 583.855 Q197.38 581.1 201.964 576.471 Q206.57 571.818 207.751 570.475 Q209.996 567.952 210.876 566.216 Q211.778 564.457 211.778 562.767 Q211.778 560.012 209.834 558.276 Q207.913 556.54 204.811 556.54 Q202.612 556.54 200.158 557.304 Q197.727 558.068 194.95 559.619 L194.95 554.897 Q197.774 553.763 200.227 553.184 Q202.681 552.605 204.718 552.605 Q210.088 552.605 213.283 555.29 Q216.477 557.975 216.477 562.466 Q216.477 564.596 215.667 566.517 Q214.88 568.415 212.774 571.008 Q212.195 571.679 209.093 574.897 Q205.991 578.091 200.343 583.855 Z" fill="#000000" fill-rule="evenodd" fill-opacity="1" /><path clip-path="url(#clip820)" d="M236.477 556.309 Q232.866 556.309 231.037 559.874 Q229.232 563.415 229.232 570.545 Q229.232 577.651 231.037 581.216 Q232.866 584.758 236.477 584.758 Q240.111 584.758 241.917 581.216 Q243.746 577.651 243.746 570.545 Q243.746 563.415 241.917 559.874 Q240.111 556.309 236.477 556.309 M236.477 552.605 Q242.287 552.605 245.343 557.212 Q248.422 561.795 248.422 570.545 Q248.422 579.272 245.343 583.878 Q242.287 588.461 236.477 588.461 Q230.667 588.461 227.588 583.878 Q224.533 579.272 224.533 570.545 Q224.533 561.795 227.588 557.212 Q230.667 552.605 236.477 552.605 Z" fill="#000000" fill-rule="evenodd" fill-opacity="1" /><path clip-path="url(#clip820)" d="M269.486 557.304 L257.681 575.753 L269.486 575.753 L269.486 557.304 M268.259 553.23 L274.139 553.23 L274.139 575.753 L279.07 575.753 L279.07 579.642 L274.139 579.642 L274.139 587.79 L269.486 587.79 L269.486 579.642 L253.885 579.642 L253.885 575.128 L268.259 553.23 Z" fill="#000000" fill-rule="evenodd" fill-opacity="1" /><path clip-path="url(#clip820)" d="M286.94 587.073 L286.94 582.813 Q288.699 583.647 290.505 584.086 Q292.31 584.526 294.046 584.526 Q298.676 584.526 301.107 581.424 Q303.56 578.299 303.907 571.957 Q302.565 573.948 300.505 575.012 Q298.445 576.077 295.945 576.077 Q290.759 576.077 287.727 572.952 Q284.718 569.804 284.718 564.364 Q284.718 559.04 287.866 555.823 Q291.014 552.605 296.245 552.605 Q302.241 552.605 305.389 557.212 Q308.56 561.795 308.56 570.545 Q308.56 578.716 304.671 583.6 Q300.806 588.461 294.255 588.461 Q292.495 588.461 290.69 588.114 Q288.884 587.767 286.94 587.073 M296.245 572.42 Q299.394 572.42 301.222 570.267 Q303.074 568.114 303.074 564.364 Q303.074 560.637 301.222 558.485 Q299.394 556.309 296.245 556.309 Q293.097 556.309 291.245 558.485 Q289.417 560.637 289.417 564.364 Q289.417 568.114 291.245 570.267 Q293.097 572.42 296.245 572.42 Z" fill="#000000" fill-rule="evenodd" fill-opacity="1" /><path clip-path="url(#clip820)" d="M331.13 569.156 Q334.486 569.874 336.361 572.142 Q338.259 574.411 338.259 577.744 Q338.259 582.86 334.741 585.66 Q331.222 588.461 324.741 588.461 Q322.565 588.461 320.25 588.022 Q317.958 587.605 315.505 586.748 L315.505 582.235 Q317.449 583.369 319.764 583.948 Q322.079 584.526 324.602 584.526 Q329 584.526 331.292 582.79 Q333.606 581.054 333.606 577.744 Q333.606 574.688 331.454 572.975 Q329.324 571.239 325.505 571.239 L321.477 571.239 L321.477 567.397 L325.69 567.397 Q329.139 567.397 330.967 566.031 Q332.796 564.642 332.796 562.049 Q332.796 559.387 330.898 557.975 Q329.023 556.54 325.505 556.54 Q323.583 556.54 321.384 556.957 Q319.185 557.374 316.546 558.253 L316.546 554.087 Q319.208 553.346 321.523 552.975 Q323.861 552.605 325.921 552.605 Q331.245 552.605 334.347 555.036 Q337.449 557.443 337.449 561.563 Q337.449 564.434 335.805 566.424 Q334.162 568.392 331.13 569.156 Z" fill="#000000" fill-rule="evenodd" fill-opacity="1" /><path clip-path="url(#clip820)" d="M347.264 587.073 L347.264 582.813 Q349.023 583.647 350.828 584.086 Q352.634 584.526 354.37 584.526 Q359 584.526 361.43 581.424 Q363.884 578.299 364.231 571.957 Q362.889 573.948 360.828 575.012 Q358.768 576.077 356.268 576.077 Q351.083 576.077 348.051 572.952 Q345.041 569.804 345.041 564.364 Q345.041 559.04 348.19 555.823 Q351.338 552.605 356.569 552.605 Q362.565 552.605 365.713 557.212 Q368.884 561.795 368.884 570.545 Q368.884 578.716 364.995 583.6 Q361.129 588.461 354.578 588.461 Q352.819 588.461 351.014 588.114 Q349.208 587.767 347.264 587.073 M356.569 572.42 Q359.717 572.42 361.546 570.267 Q363.398 568.114 363.398 564.364 Q363.398 560.637 361.546 558.485 Q359.717 556.309 356.569 556.309 Q353.421 556.309 351.569 558.485 Q349.741 560.637 349.741 564.364 Q349.741 568.114 351.569 570.267 Q353.421 572.42 356.569 572.42 Z" fill="#000000" fill-rule="evenodd" fill-opacity="1" /><path clip-path="url(#clip820)" d="M405.458 562.327 L394.879 572.952 L405.458 583.531 L402.703 586.332 L392.078 575.707 L381.453 586.332 L378.722 583.531 L389.277 572.952 L378.722 562.327 L381.453 559.526 L392.078 570.151 L402.703 559.526 L405.458 562.327 Z" fill="#000000" fill-rule="evenodd" fill-opacity="1" /><path clip-path="url(#clip820)" d="M417.819 583.855 L425.458 583.855 L425.458 557.489 L417.148 559.156 L417.148 554.897 L425.411 553.23 L430.087 553.23 L430.087 583.855 L437.726 583.855 L437.726 587.79 L417.819 587.79 L417.819 583.855 Z" fill="#000000" fill-rule="evenodd" fill-opacity="1" /><path clip-path="url(#clip820)" d="M457.171 556.309 Q453.559 556.309 451.731 559.874 Q449.925 563.415 449.925 570.545 Q449.925 577.651 451.731 581.216 Q453.559 584.758 457.171 584.758 Q460.805 584.758 462.61 581.216 Q464.439 577.651 464.439 570.545 Q464.439 563.415 462.61 559.874 Q460.805 556.309 457.171 556.309 M457.171 552.605 Q462.981 552.605 466.036 557.212 Q469.115 561.795 469.115 570.545 Q469.115 579.272 466.036 583.878 Q462.981 588.461 457.171 588.461 Q451.36 588.461 448.282 583.878 Q445.226 579.272 445.226 570.545 Q445.226 561.795 448.282 557.212 Q451.36 552.605 457.171 552.605 Z" fill="#000000" fill-rule="evenodd" fill-opacity="1" /><path clip-path="url(#clip820)" d="M469.66 557.182 L475.867 557.182 L475.867 535.76 L469.115 537.114 L469.115 533.654 L475.829 532.3 L479.628 532.3 L479.628 557.182 L485.835 557.182 L485.835 560.38 L469.66 560.38 L469.66 557.182 Z" fill="#000000" fill-rule="evenodd" fill-opacity="1" /><path clip-path="url(#clip820)" d="M50.9921 313.149 L80.6679 313.149 L80.6679 317.084 L50.9921 317.084 L50.9921 313.149 Z" fill="#000000" fill-rule="evenodd" fill-opacity="1" /><path clip-path="url(#clip820)" d="M91.5706 326.042 L99.2095 326.042 L99.2095 299.677 L90.8993 301.343 L90.8993 297.084 L99.1632 295.418 L103.839 295.418 L103.839 326.042 L111.478 326.042 L111.478 329.978 L91.5706 329.978 L91.5706 326.042 Z" fill="#000000" fill-rule="evenodd" fill-opacity="1" /><path clip-path="url(#clip820)" d="M120.922 324.098 L125.807 324.098 L125.807 329.978 L120.922 329.978 L120.922 324.098 Z" fill="#000000" fill-rule="evenodd" fill-opacity="1" /><path clip-path="url(#clip820)" d="M136.131 329.26 L136.131 325.001 Q137.89 325.834 139.695 326.274 Q141.501 326.714 143.237 326.714 Q147.867 326.714 150.297 323.612 Q152.751 320.487 153.098 314.144 Q151.755 316.135 149.695 317.2 Q147.635 318.265 145.135 318.265 Q139.95 318.265 136.918 315.14 Q133.908 311.992 133.908 306.552 Q133.908 301.228 137.056 298.01 Q140.205 294.793 145.436 294.793 Q151.431 294.793 154.58 299.399 Q157.751 303.982 157.751 312.732 Q157.751 320.904 153.862 325.788 Q149.996 330.649 143.445 330.649 Q141.686 330.649 139.881 330.302 Q138.075 329.954 136.131 329.26 M145.436 314.607 Q148.584 314.607 150.413 312.455 Q152.265 310.302 152.265 306.552 Q152.265 302.825 150.413 300.672 Q148.584 298.496 145.436 298.496 Q142.288 298.496 140.436 300.672 Q138.607 302.825 138.607 306.552 Q138.607 310.302 140.436 312.455 Q142.288 314.607 145.436 314.607 Z" fill="#000000" fill-rule="evenodd" fill-opacity="1" /><path clip-path="url(#clip820)" d="M166.2 295.418 L184.556 295.418 L184.556 299.353 L170.482 299.353 L170.482 307.825 Q171.501 307.478 172.519 307.316 Q173.538 307.131 174.556 307.131 Q180.343 307.131 183.723 310.302 Q187.103 313.473 187.103 318.89 Q187.103 324.468 183.63 327.57 Q180.158 330.649 173.839 330.649 Q171.663 330.649 169.394 330.279 Q167.149 329.908 164.742 329.167 L164.742 324.468 Q166.825 325.603 169.047 326.158 Q171.269 326.714 173.746 326.714 Q177.751 326.714 180.089 324.607 Q182.427 322.501 182.427 318.89 Q182.427 315.279 180.089 313.172 Q177.751 311.066 173.746 311.066 Q171.871 311.066 169.996 311.482 Q168.144 311.899 166.2 312.779 L166.2 295.418 Z" fill="#000000" fill-rule="evenodd" fill-opacity="1" /><path clip-path="url(#clip820)" d="M200.343 326.042 L216.663 326.042 L216.663 329.978 L194.718 329.978 L194.718 326.042 Q197.38 323.288 201.964 318.658 Q206.57 314.005 207.751 312.663 Q209.996 310.14 210.876 308.404 Q211.778 306.644 211.778 304.955 Q211.778 302.2 209.834 300.464 Q207.913 298.728 204.811 298.728 Q202.612 298.728 200.158 299.492 Q197.727 300.256 194.95 301.806 L194.95 297.084 Q197.774 295.95 200.227 295.371 Q202.681 294.793 204.718 294.793 Q210.088 294.793 213.283 297.478 Q216.477 300.163 216.477 304.654 Q216.477 306.783 215.667 308.705 Q214.88 310.603 212.774 313.195 Q212.195 313.867 209.093 317.084 Q205.991 320.279 200.343 326.042 Z" fill="#000000" fill-rule="evenodd" fill-opacity="1" /><path clip-path="url(#clip820)" d="M236.477 298.496 Q232.866 298.496 231.037 302.061 Q229.232 305.603 229.232 312.732 Q229.232 319.839 231.037 323.404 Q232.866 326.945 236.477 326.945 Q240.111 326.945 241.917 323.404 Q243.746 319.839 243.746 312.732 Q243.746 305.603 241.917 302.061 Q240.111 298.496 236.477 298.496 M236.477 294.793 Q242.287 294.793 245.343 299.399 Q248.422 303.982 248.422 312.732 Q248.422 321.459 245.343 326.066 Q242.287 330.649 236.477 330.649 Q230.667 330.649 227.588 326.066 Q224.533 321.459 224.533 312.732 Q224.533 303.982 227.588 299.399 Q230.667 294.793 236.477 294.793 Z" fill="#000000" fill-rule="evenodd" fill-opacity="1" /><path clip-path="url(#clip820)" d="M269.486 299.492 L257.681 317.941 L269.486 317.941 L269.486 299.492 M268.259 295.418 L274.139 295.418 L274.139 317.941 L279.07 317.941 L279.07 321.829 L274.139 321.829 L274.139 329.978 L269.486 329.978 L269.486 321.829 L253.885 321.829 L253.885 317.316 L268.259 295.418 Z" fill="#000000" fill-rule="evenodd" fill-opacity="1" /><path clip-path="url(#clip820)" d="M286.94 329.26 L286.94 325.001 Q288.699 325.834 290.505 326.274 Q292.31 326.714 294.046 326.714 Q298.676 326.714 301.107 323.612 Q303.56 320.487 303.907 314.144 Q302.565 316.135 300.505 317.2 Q298.445 318.265 295.945 318.265 Q290.759 318.265 287.727 315.14 Q284.718 311.992 284.718 306.552 Q284.718 301.228 287.866 298.01 Q291.014 294.793 296.245 294.793 Q302.241 294.793 305.389 299.399 Q308.56 303.982 308.56 312.732 Q308.56 320.904 304.671 325.788 Q300.806 330.649 294.255 330.649 Q292.495 330.649 290.69 330.302 Q288.884 329.954 286.94 329.26 M296.245 314.607 Q299.394 314.607 301.222 312.455 Q303.074 310.302 303.074 306.552 Q303.074 302.825 301.222 300.672 Q299.394 298.496 296.245 298.496 Q293.097 298.496 291.245 300.672 Q289.417 302.825 289.417 306.552 Q289.417 310.302 291.245 312.455 Q293.097 314.607 296.245 314.607 Z" fill="#000000" fill-rule="evenodd" fill-opacity="1" /><path clip-path="url(#clip820)" d="M331.13 311.343 Q334.486 312.061 336.361 314.33 Q338.259 316.598 338.259 319.931 Q338.259 325.047 334.741 327.848 Q331.222 330.649 324.741 330.649 Q322.565 330.649 320.25 330.209 Q317.958 329.792 315.505 328.936 L315.505 324.422 Q317.449 325.556 319.764 326.135 Q322.079 326.714 324.602 326.714 Q329 326.714 331.292 324.978 Q333.606 323.242 333.606 319.931 Q333.606 316.876 331.454 315.163 Q329.324 313.427 325.505 313.427 L321.477 313.427 L321.477 309.584 L325.69 309.584 Q329.139 309.584 330.967 308.218 Q332.796 306.83 332.796 304.237 Q332.796 301.575 330.898 300.163 Q329.023 298.728 325.505 298.728 Q323.583 298.728 321.384 299.144 Q319.185 299.561 316.546 300.441 L316.546 296.274 Q319.208 295.533 321.523 295.163 Q323.861 294.793 325.921 294.793 Q331.245 294.793 334.347 297.223 Q337.449 299.631 337.449 303.751 Q337.449 306.621 335.805 308.612 Q334.162 310.58 331.13 311.343 Z" fill="#000000" fill-rule="evenodd" fill-opacity="1" /><path clip-path="url(#clip820)" d="M347.264 329.26 L347.264 325.001 Q349.023 325.834 350.828 326.274 Q352.634 326.714 354.37 326.714 Q359 326.714 361.43 323.612 Q363.884 320.487 364.231 314.144 Q362.889 316.135 360.828 317.2 Q358.768 318.265 356.268 318.265 Q351.083 318.265 348.051 315.14 Q345.041 311.992 345.041 306.552 Q345.041 301.228 348.19 298.01 Q351.338 294.793 356.569 294.793 Q362.565 294.793 365.713 299.399 Q368.884 303.982 368.884 312.732 Q368.884 320.904 364.995 325.788 Q361.129 330.649 354.578 330.649 Q352.819 330.649 351.014 330.302 Q349.208 329.954 347.264 329.26 M356.569 314.607 Q359.717 314.607 361.546 312.455 Q363.398 310.302 363.398 306.552 Q363.398 302.825 361.546 300.672 Q359.717 298.496 356.569 298.496 Q353.421 298.496 351.569 300.672 Q349.741 302.825 349.741 306.552 Q349.741 310.302 351.569 312.455 Q353.421 314.607 356.569 314.607 Z" fill="#000000" fill-rule="evenodd" fill-opacity="1" /><path clip-path="url(#clip820)" d="M405.458 304.515 L394.879 315.14 L405.458 325.718 L402.703 328.519 L392.078 317.894 L381.453 328.519 L378.722 325.718 L389.277 315.14 L378.722 304.515 L381.453 301.714 L392.078 312.339 L402.703 301.714 L405.458 304.515 Z" fill="#000000" fill-rule="evenodd" fill-opacity="1" /><path clip-path="url(#clip820)" d="M417.819 326.042 L425.458 326.042 L425.458 299.677 L417.148 301.343 L417.148 297.084 L425.411 295.418 L430.087 295.418 L430.087 326.042 L437.726 326.042 L437.726 329.978 L417.819 329.978 L417.819 326.042 Z" fill="#000000" fill-rule="evenodd" fill-opacity="1" /><path clip-path="url(#clip820)" d="M457.171 298.496 Q453.559 298.496 451.731 302.061 Q449.925 305.603 449.925 312.732 Q449.925 319.839 451.731 323.404 Q453.559 326.945 457.171 326.945 Q460.805 326.945 462.61 323.404 Q464.439 319.839 464.439 312.732 Q464.439 305.603 462.61 302.061 Q460.805 298.496 457.171 298.496 M457.171 294.793 Q462.981 294.793 466.036 299.399 Q469.115 303.982 469.115 312.732 Q469.115 321.459 466.036 326.066 Q462.981 330.649 457.171 330.649 Q451.36 330.649 448.282 326.066 Q445.226 321.459 445.226 312.732 Q445.226 303.982 448.282 299.399 Q451.36 294.793 457.171 294.793 Z" fill="#000000" fill-rule="evenodd" fill-opacity="1" /><path clip-path="url(#clip820)" d="M469.66 299.37 L475.867 299.37 L475.867 277.948 L469.115 279.302 L469.115 275.841 L475.829 274.487 L479.628 274.487 L479.628 299.37 L485.835 299.37 L485.835 302.567 L469.66 302.567 L469.66 299.37 Z" fill="#000000" fill-rule="evenodd" fill-opacity="1" /><polyline clip-path="url(#clip822)" style="stroke:#009af9; stroke-linecap:round; stroke-linejoin:round; stroke-width:4; stroke-opacity:1; fill:none" points="573.654,90.625 577.115,90.625 580.576,90.625 584.038,90.625 587.499,90.625 590.961,90.625 594.422,90.625 597.884,90.625 601.345,90.625 604.807,90.625 608.268,90.625 611.73,90.625 615.191,90.625 618.653,90.625 622.114,90.625 625.576,90.625 629.037,90.625 632.499,90.625 635.96,90.625 639.422,90.625 642.883,90.625 646.345,90.625 649.806,90.625 653.268,90.625 656.729,90.625 660.191,90.625 663.652,90.625 667.114,90.625 670.575,90.625 674.037,90.625 677.498,90.625 680.96,90.625 684.421,90.625 687.883,90.625 691.344,90.625 694.806,90.625 698.267,90.625 701.729,90.625 705.19,90.625 708.652,90.625 712.113,90.625 715.575,90.625 719.036,90.625 722.498,90.625 725.959,90.625 729.421,90.625 732.882,90.625 736.344,90.625 739.805,90.625 743.267,90.625 746.728,90.625 750.19,90.625 753.651,90.625 757.113,90.625 760.574,90.625 764.035,90.625 767.497,90.625 770.958,90.625 774.42,90.625 777.881,90.625 781.343,90.625 784.804,90.625 788.266,90.625 791.727,90.625 795.189,90.625 798.65,90.625 802.112,90.625 805.573,90.625 809.035,90.625 812.496,90.625 815.958,90.625 819.419,90.625 822.881,90.625 826.342,90.625 829.804,90.625 833.265,90.625 836.727,90.625 840.188,90.625 843.65,90.625 847.111,90.625 850.573,90.625 854.034,90.625 857.496,90.625 860.957,90.625 864.419,90.625 867.88,90.625 871.342,90.625 874.803,90.625 878.265,90.625 881.726,90.625 885.188,90.625 888.649,90.625 892.111,90.625 895.572,90.625 899.034,90.625 902.495,90.625 905.957,90.625 909.418,90.625 912.88,90.625 916.341,90.625 919.803,90.625 923.264,90.625 926.726,90.625 930.187,90.625 933.649,90.625 937.11,90.625 940.572,90.625 944.033,90.625 947.495,90.625 950.956,90.625 954.417,90.625 957.879,90.625 961.34,90.625 964.802,90.625 968.263,90.625 971.725,90.625 975.186,90.625 978.648,90.625 982.109,90.625 985.571,90.625 989.032,90.625 992.494,90.625 995.955,90.625 999.417,90.625 1002.88,1447.66 1006.34,90.625 1009.8,90.625 1013.26,90.625 1016.72,90.625 1020.19,90.625 1023.65,90.625 1027.11,90.625 1030.57,90.625 1034.03,90.625 1037.49,90.625 1040.95,90.625 1044.42,90.625 1047.88,90.625 1051.34,90.625 1054.8,90.625 1058.26,90.625 1061.72,90.625 1065.19,90.625 1068.65,90.625 1072.11,90.625 1075.57,90.625 1079.03,90.625 1082.49,90.625 1085.95,90.625 1089.42,90.625 1092.88,90.625 1096.34,90.625 1099.8,90.625 1103.26,90.625 1106.72,90.625 1110.18,90.625 1113.65,90.625 1117.11,90.625 1120.57,90.625 1124.03,90.625 1127.49,90.625 1130.95,90.625 1134.42,90.625 1137.88,90.625 1141.34,90.625 1144.8,90.625 1148.26,90.625 1151.72,90.625 1155.18,90.625 1158.65,90.625 1162.11,90.625 1165.57,90.625 1169.03,90.625 1172.49,90.625 1175.95,90.625 1179.41,90.625 1182.88,90.625 1186.34,90.625 1189.8,90.625 1193.26,90.625 1196.72,90.625 1200.18,90.625 1203.64,90.625 1207.11,90.625 1210.57,90.625 1214.03,90.625 1217.49,90.625 1220.95,90.625 1224.41,90.625 1227.88,90.625 1231.34,90.625 1234.8,90.625 1238.26,90.625 1241.72,90.625 1245.18,90.625 1248.64,90.625 1252.11,90.625 1255.57,90.625 1259.03,90.625 1262.49,90.625 1265.95,90.625 1269.41,90.625 1272.87,90.625 1276.34,90.625 1279.8,90.625 1283.26,90.625 1286.72,90.625 1290.18,90.625 1293.64,90.625 1297.11,90.625 1300.57,90.625 1304.03,90.625 1307.49,90.625 1310.95,90.625 1314.41,90.625 1317.87,90.625 1321.34,90.625 1324.8,90.625 1328.26,90.625 1331.72,90.625 1335.18,90.625 1338.64,90.625 1342.1,90.625 1345.57,90.625 1349.03,90.625 1352.49,90.625 1355.95,90.625 1359.41,90.625 1362.87,90.625 1366.33,90.625 1369.8,90.625 1373.26,90.625 1376.72,90.625 1380.18,90.625 1383.64,90.625 1387.1,90.625 1390.57,90.625 1394.03,90.625 1397.49,90.625 1400.95,90.625 1404.41,90.625 1407.87,90.625 1411.33,90.625 1414.8,90.625 1418.26,90.625 1421.72,90.625 1425.18,90.625 1428.64,90.625 1432.1,90.625 1435.56,1447.66 1439.03,90.625 1442.49,90.625 1445.95,90.625 1449.41,90.625 1452.87,90.625 1456.33,90.625 1459.8,90.625 1463.26,90.625 1466.72,90.625 1470.18,90.625 1473.64,90.625 1477.1,90.625 1480.56,90.625 1484.03,90.625 1487.49,90.625 1490.95,90.625 1494.41,90.625 1497.87,90.625 1501.33,90.625 1504.79,90.625 1508.26,90.625 1511.72,90.625 1515.18,90.625 1518.64,90.625 1522.1,90.625 1525.56,90.625 1529.02,90.625 1532.49,90.625 1535.95,90.625 1539.41,90.625 1542.87,90.625 1546.33,90.625 1549.79,90.625 1553.26,90.625 1556.72,90.625 1560.18,90.625 1563.64,90.625 1567.1,90.625 1570.56,90.625 1574.02,90.625 1577.49,90.625 1580.95,90.625 1584.41,90.625 1587.87,90.625 1591.33,90.625 1594.79,90.625 1598.25,90.625 1601.72,90.625 1605.18,90.625 1608.64,90.625 1612.1,90.625 1615.56,90.625 1619.02,90.625 1622.49,90.625 1625.95,90.625 1629.41,90.625 1632.87,90.625 1636.33,90.625 1639.79,90.625 1643.25,90.625 1646.72,90.625 1650.18,90.625 1653.64,90.625 1657.1,90.625 1660.56,90.625 1664.02,90.625 1667.48,90.625 1670.95,90.625 1674.41,90.625 1677.87,90.625 1681.33,90.625 1684.79,90.625 1688.25,90.625 1691.72,90.625 1695.18,90.625 1698.64,90.625 1702.1,90.625 1705.56,90.625 1709.02,90.625 1712.48,90.625 1715.95,90.625 1719.41,90.625 1722.87,90.625 1726.33,90.625 1729.79,90.625 1733.25,90.625 1736.71,90.625 1740.18,90.625 1743.64,90.625 1747.1,90.625 1750.56,90.625 1754.02,90.625 1757.48,90.625 1760.94,90.625 1764.41,90.625 1767.87,90.625 1771.33,90.625 1774.79,90.625 1778.25,90.625 1781.71,90.625 1785.18,90.625 1788.64,90.625 1792.1,90.625 1795.56,90.625 1799.02,90.625 1802.48,90.625 1805.94,90.625 1809.41,90.625 1812.87,90.625 1816.33,90.625 1819.79,90.625 1823.25,90.625 1826.71,90.625 1830.17,90.625 1833.64,90.625 1837.1,90.625 1840.56,90.625 1844.02,90.625 1847.48,90.625 1850.94,90.625 1854.41,90.625 1857.87,90.625 1861.33,90.625 1864.79,90.625 1868.25,1447.66 1871.71,90.625 1875.17,90.625 1878.64,90.625 1882.1,90.625 1885.56,90.625 1889.02,90.625 1892.48,90.625 1895.94,90.625 1899.4,90.625 1902.87,90.625 1906.33,90.625 1909.79,90.625 1913.25,90.625 1916.71,90.625 1920.17,90.625 1923.63,90.625 1927.1,90.625 1930.56,90.625 1934.02,90.625 1937.48,90.625 1940.94,90.625 1944.4,90.625 1947.87,90.625 1951.33,90.625 1954.79,90.625 1958.25,90.625 1961.71,90.625 1965.17,90.625 1968.63,90.625 1972.1,90.625 1975.56,90.625 1979.02,90.625 1982.48,90.625 1985.94,90.625 1989.4,90.625 1992.86,90.625 1996.33,90.625 1999.79,90.625 2003.25,90.625 2006.71,90.625 2010.17,90.625 2013.63,90.625 2017.1,90.625 2020.56,90.625 2024.02,90.625 2027.48,90.625 2030.94,90.625 2034.4,90.625 2037.86,90.625 2041.33,90.625 2044.79,90.625 2048.25,90.625 2051.71,90.625 2055.17,90.625 2058.63,90.625 2062.09,90.625 2065.56,90.625 2069.02,90.625 2072.48,90.625 2075.94,90.625 2079.4,90.625 2082.86,90.625 2086.32,90.625 2089.79,90.625 2093.25,90.625 2096.71,90.625 2100.17,90.625 2103.63,90.625 2107.09,90.625 2110.56,90.625 2114.02,90.625 2117.48,90.625 2120.94,90.625 2124.4,90.625 2127.86,90.625 2131.32,90.625 2134.79,90.625 2138.25,90.625 2141.71,90.625 2145.17,90.625 2148.63,90.625 2152.09,90.625 2155.55,90.625 2159.02,90.625 2162.48,90.625 2165.94,90.625 2169.4,90.625 2172.86,90.625 2176.32,90.625 2179.79,90.625 2183.25,90.625 2186.71,90.625 2190.17,90.625 2193.63,90.625 2197.09,90.625 2200.55,90.625 2204.02,90.625 2207.48,90.625 2210.94,90.625 2214.4,90.625 2217.86,90.625 2221.32,90.625 2224.78,90.625 2228.25,90.625 2231.71,90.625 2235.17,90.625 2238.63,90.625 2242.09,90.625 2245.55,90.625 2249.02,90.625 2252.48,90.625 2255.94,90.625 2259.4,90.625 2262.86,90.625 2266.32,90.625 2269.78,90.625 2273.25,90.625 2276.71,90.625 2280.17,90.625 2283.63,90.625 2287.09,90.625 2290.55,90.625 2294.01,90.625 2297.48,90.625 2300.94,1447.66 "/>
<path clip-path="url(#clip820)" d="M582.866 1438.47 L818.388 1438.47 L818.388 1334.79 L582.866 1334.79  Z" fill="#ffffff" fill-rule="evenodd" fill-opacity="1"/>
<polyline clip-path="url(#clip820)" style="stroke:#000000; stroke-linecap:round; stroke-linejoin:round; stroke-width:4; stroke-opacity:1; fill:none" points="582.866,1438.47 818.388,1438.47 818.388,1334.79 582.866,1334.79 582.866,1438.47 "/>
<polyline clip-path="url(#clip820)" style="stroke:#009af9; stroke-linecap:round; stroke-linejoin:round; stroke-width:4; stroke-opacity:1; fill:none" points="603.209,1386.63 725.271,1386.63 "/>
<path clip-path="url(#clip820)" d="M759.457 1406.32 Q757.651 1410.95 755.938 1412.36 Q754.225 1413.78 751.355 1413.78 L747.952 1413.78 L747.952 1410.21 L750.452 1410.21 Q752.211 1410.21 753.184 1409.38 Q754.156 1408.54 755.336 1405.44 L756.1 1403.5 L745.614 1377.99 L750.128 1377.99 L758.23 1398.27 L766.332 1377.99 L770.846 1377.99 L759.457 1406.32 Z" fill="#000000" fill-rule="evenodd" fill-opacity="1" /><path clip-path="url(#clip820)" d="M778.137 1399.98 L785.776 1399.98 L785.776 1373.61 L777.466 1375.28 L777.466 1371.02 L785.73 1369.35 L790.406 1369.35 L790.406 1399.98 L798.044 1399.98 L798.044 1403.91 L778.137 1403.91 L778.137 1399.98 Z" fill="#000000" fill-rule="evenodd" fill-opacity="1" /></svg>
